<svg width="18" height="18" viewBox="0 0 20 20" fill="none" xmlns="http://www.w3.org/2000/svg">
<path d="M9.02988 0.00270916C8.87575 0.00794159 8.54823 0.0301794 8.38567 0.0484929C8.24238 0.0628821 8.09307 0.0851199 7.68728 0.153141C7.64152 0.16099 7.53556 0.184536 7.45247 0.205466C7.36939 0.226395 7.27547 0.251249 7.24175 0.259098C7.0226 0.31273 6.76973 0.389909 6.52529 0.47886C6.20379 0.595281 6.16044 0.613595 6.17249 0.627984C6.1773 0.633216 6.17249 0.633216 6.16285 0.629292C6.15202 0.625368 6.10867 0.635833 6.06652 0.652838C5.88952 0.7274 5.63665 0.835973 5.5921 0.858211C5.56561 0.871292 5.50299 0.90007 5.45362 0.923616C5.20798 1.03742 4.57702 1.40238 4.56498 1.43509C4.56257 1.44163 4.55534 1.44686 4.54932 1.44686C4.50357 1.44686 3.75701 2.03551 3.76544 2.06428C3.76664 2.07083 3.76303 2.07344 3.75581 2.06821C3.74376 2.06036 3.38614 2.36907 3.31028 2.4541C3.30667 2.45802 3.28499 2.47765 3.26211 2.49858C3.10558 2.63724 2.63597 3.13693 2.63597 3.16571C2.63597 3.17617 2.62995 3.18926 2.62152 3.19449C2.61309 3.20103 2.61068 3.1971 2.6167 3.18533C2.62152 3.17487 2.58178 3.21673 2.5288 3.2769C2.47582 3.33707 2.43608 3.39332 2.4397 3.39986C2.44331 3.40771 2.4409 3.40902 2.43367 3.40379C2.42645 3.39986 2.4132 3.4064 2.40478 3.41948C2.39153 3.44041 2.28557 3.57515 2.24463 3.62355C2.16395 3.71904 1.83643 4.18996 1.70759 4.39664C1.58115 4.59809 1.31143 5.07162 1.31143 5.08993C1.31143 5.09386 1.29818 5.11871 1.28253 5.14618C1.24761 5.20766 1.0393 5.65242 0.979091 5.79631C0.861086 6.08148 0.691305 6.5367 0.637119 6.71853C0.463725 7.30063 0.292739 8.04495 0.269861 8.31965C0.266248 8.36936 0.253003 8.46746 0.239757 8.53679C0.178347 8.87167 0.149448 9.3609 0.149448 10.0215C0.150652 10.8103 0.197613 11.3152 0.31923 11.8594C0.342108 11.964 0.385457 12.155 0.414356 12.2845C0.443255 12.414 0.486603 12.6063 0.509482 12.711C0.562463 12.9438 0.580525 13.0053 0.667222 13.246C0.70455 13.3506 0.773185 13.5416 0.818942 13.6711C0.865903 13.8006 0.914068 13.9353 0.928518 13.972C0.956212 14.0439 0.957417 14.0492 1.00438 14.18C1.06458 14.35 1.01401 14.2885 0.910456 14.0635C0.793655 13.8098 0.686488 13.5168 0.54681 13.0759C0.416764 12.6626 0.271065 12.0988 0.215675 11.7874C0.207246 11.7443 0.196409 11.6828 0.190388 11.6501C0.184368 11.6174 0.166306 11.4761 0.149448 11.3361C0.133794 11.1962 0.108508 10.9895 0.0952624 10.8783C0.082017 10.7671 0.0639551 10.6154 0.0567303 10.5421C0.0350561 10.3302 0.0181983 10.3891 0.0266272 10.6481C0.0362602 10.9123 0.0711798 11.1962 0.155469 11.6632C0.16751 11.7312 0.183164 11.8254 0.191592 11.8725C0.245778 12.1956 0.344516 12.6076 0.45048 12.9517C0.543197 13.2564 0.693713 13.6868 0.769573 13.8673C0.959825 14.3173 1.00317 14.4128 1.01642 14.3997C1.02244 14.3945 1.02244 14.3971 1.01883 14.405C1.00438 14.4311 1.29337 14.9949 1.45713 15.2644C1.48362 15.3062 1.50409 15.3442 1.50409 15.3468C1.50409 15.356 1.60162 15.5129 1.61246 15.5221C1.61728 15.526 1.6534 15.5809 1.69434 15.6464C1.82318 15.8517 2.03029 16.1487 2.11217 16.2468C2.1194 16.2546 2.14348 16.2873 2.16636 16.32C2.2061 16.3763 2.24583 16.426 2.28798 16.477C2.29881 16.4901 2.38069 16.5869 2.471 16.6941C2.73952 17.0159 3.12364 17.4097 3.40661 17.653C3.44996 17.6896 3.49812 17.7315 3.51498 17.7459C3.67874 17.8924 4.08694 18.2037 4.32415 18.362C4.3976 18.4117 4.81784 18.6825 4.91177 18.74C4.95511 18.7675 5.07673 18.8434 5.18269 18.9088C5.48734 19.0984 5.87627 19.3012 6.12793 19.4019C6.19055 19.4268 6.25316 19.4529 6.26641 19.4595C6.39645 19.521 6.87088 19.6727 7.28028 19.7852C7.37902 19.8127 7.97747 19.9278 8.07862 19.9396C8.10872 19.9422 8.22191 19.9579 8.33148 19.9736C8.5109 19.9984 8.58435 20.001 9.09008 19.9997C9.41881 19.9984 9.69937 19.9919 9.77041 19.984C9.99197 19.9566 10.1774 19.9278 10.4206 19.8833C10.7024 19.8323 10.712 19.8297 10.8903 19.7865C10.983 19.763 11.0925 19.7368 11.1323 19.7276C11.5658 19.6256 12.4966 19.3064 12.8289 19.1455C12.8554 19.1338 12.9264 19.1011 12.9854 19.0736C13.0456 19.0461 13.0986 19.0186 13.1046 19.0134C13.1119 19.0069 13.1239 19.0016 13.1335 19.0016C13.148 19.0016 13.573 18.7766 13.5995 18.7544C13.6068 18.7479 13.6501 18.7217 13.6959 18.6942C13.8392 18.6105 13.8825 18.5804 13.8825 18.5674C13.8825 18.5608 13.8873 18.5582 13.8921 18.5621C13.8982 18.566 13.9222 18.5543 13.9463 18.5373C13.9704 18.519 13.9933 18.5046 13.9969 18.5046C14.0017 18.5046 14.027 18.4876 14.0547 18.4666C14.0824 18.447 14.2088 18.3554 14.3341 18.2639C14.4605 18.1723 14.5978 18.069 14.6411 18.0323C14.6845 17.9957 14.7579 17.9355 14.8037 17.8963C15.189 17.5771 15.3913 17.3966 15.5863 17.1951C15.6261 17.1546 15.6851 17.0957 15.7164 17.0643C15.7489 17.0343 15.7947 16.9754 15.8187 16.9361C15.8428 16.8956 15.9307 16.7896 16.0138 16.6994C16.1703 16.5293 16.2763 16.4077 16.3534 16.3069C16.487 16.1304 16.6785 15.8596 16.8206 15.6464C16.8447 15.6097 16.8868 15.5469 16.9145 15.5064C16.9422 15.4658 16.9651 15.4279 16.9651 15.424C16.9651 15.42 17.0156 15.335 17.0771 15.2343C17.4708 14.5868 17.7574 13.9824 17.9789 13.331C18.1716 12.7646 18.3631 12.0517 18.41 11.7286C18.4389 11.5284 18.4835 11.2446 18.4931 11.1922C18.5003 11.1595 18.5112 11.0863 18.5184 11.0287C18.5256 10.9712 18.5365 10.8979 18.5425 10.8652C18.6063 10.5303 18.6304 10.1484 18.6304 9.49171C18.6292 8.74478 18.6003 8.41122 18.4931 7.91283C18.4654 7.78463 18.4305 7.62112 18.416 7.54917C18.3799 7.38435 18.286 6.988 18.2547 6.8755C18.2149 6.7303 18.1608 6.54455 18.1415 6.48961C18.1319 6.46083 18.109 6.39281 18.0909 6.33918C18.0608 6.24761 17.9681 6.00038 17.9139 5.86826C17.8128 5.62233 17.5732 5.12133 17.5527 5.11217C17.5479 5.10956 17.543 5.10171 17.543 5.09517C17.543 5.04677 17.0879 4.35478 16.9735 4.2292C16.935 4.18734 16.9241 4.18211 16.9085 4.19519C16.8832 4.21874 16.8928 4.25405 16.9639 4.42018C16.9976 4.49736 17.0253 4.56408 17.0253 4.56669C17.0253 4.58762 17.1144 4.77076 17.1336 4.78907C17.1589 4.81392 17.1662 4.86102 17.1469 4.86102C17.1312 4.86102 17.0891 4.7943 17.0843 4.76029C17.0807 4.73805 16.8892 4.51175 16.6556 4.25013L16.6159 4.20565V4.23967C16.6159 4.25798 16.6243 4.28807 16.6351 4.30507C16.6556 4.33908 16.6412 4.34955 16.6135 4.32077C16.605 4.31292 16.5617 4.27237 16.5195 4.23312C16.4762 4.19388 16.4377 4.15595 16.434 4.14941C16.4292 4.14417 16.4196 4.14287 16.4112 4.1481C16.4015 4.15464 16.3979 4.15333 16.4027 4.14548C16.4124 4.12978 16.3811 4.09708 16.3642 4.10493C16.3582 4.10624 16.3895 4.18211 16.4353 4.27237C16.481 4.36263 16.5244 4.46204 16.5304 4.49475C16.5629 4.65564 16.6135 4.7773 16.9338 5.47321C17.0831 5.79893 17.2059 6.07101 17.2059 6.07755C17.2059 6.0854 17.1914 6.09064 17.1734 6.08933C17.1541 6.08802 17.1216 6.09064 17.0999 6.09587C17.0602 6.10633 17.0602 6.10633 17.0686 6.16651C17.0734 6.20052 17.0819 6.23845 17.0879 6.25284C17.0963 6.26985 17.0951 6.28031 17.0843 6.28816C17.053 6.3104 17.0229 6.29339 16.9964 6.24107C16.9085 6.0684 16.7929 5.90096 16.7375 5.86957C16.7242 5.86172 16.699 5.85779 16.6809 5.86303C16.6424 5.87349 16.6387 5.85518 16.7423 6.1822C16.8109 6.39673 16.8242 6.45298 16.8266 6.53539C16.8278 6.58902 16.8386 6.67405 16.8495 6.72507C16.8832 6.87419 16.8892 6.91082 16.9277 7.13712C16.9976 7.56226 17.0542 7.98477 17.0722 8.22285C17.1168 8.80888 17.0843 10.55 17.0253 10.7148C17.018 10.737 17.0144 10.7331 17.0024 10.6886C16.9952 10.6599 16.9891 10.6036 16.9891 10.5644C16.9891 10.5003 16.9831 10.4636 16.959 10.3446C16.9506 10.308 16.9229 10.308 16.9 10.3446C16.8699 10.3943 16.8194 10.5827 16.7953 10.7279C16.7905 10.7632 16.7688 10.8783 16.7483 10.983C16.7279 11.0876 16.7002 11.2276 16.6869 11.2943C16.5629 11.9326 16.3486 12.6599 16.1137 13.246C16.0463 13.4134 15.891 13.7574 15.8139 13.9092C15.6971 14.1407 15.425 14.6051 15.307 14.7738C15.2841 14.8079 15.254 14.8523 15.2396 14.8733C15.2046 14.9243 15.0601 15.1218 15.0505 15.1296C15.0469 15.1336 15.0252 15.1624 15.0023 15.1951C14.9795 15.2278 14.9289 15.2945 14.8879 15.3455C14.8482 15.3952 14.8 15.458 14.7796 15.4828C14.7603 15.5077 14.6604 15.6202 14.5568 15.7327C14.3882 15.9171 14.3088 15.9956 14.1462 16.1382C14.1173 16.1644 14.0451 16.2298 13.9849 16.2834C13.9259 16.337 13.8175 16.4286 13.744 16.4875C13.6718 16.5463 13.6068 16.5987 13.5995 16.6052C13.5791 16.6222 13.2684 16.8603 13.166 16.9375C12.9048 17.1337 12.5062 17.3665 12.1967 17.5026C12.1534 17.5222 12.1076 17.5431 12.0944 17.5496C12.0306 17.5823 11.6633 17.7236 11.4923 17.7825C11.1166 17.9094 10.9745 17.9473 10.3845 18.0729C10.3207 18.086 10.1088 18.1187 9.95103 18.1396C9.45493 18.2037 8.73848 18.2076 8.24117 18.1514C7.96663 18.1187 7.41394 18.0049 7.19961 17.9355C7.1695 17.9251 7.10448 17.9055 7.05511 17.8898C6.28808 17.653 5.37776 17.1938 4.80701 16.7569C4.76607 16.7255 4.72994 16.6994 4.72633 16.6994C4.72272 16.6994 4.70947 16.6902 4.69864 16.6798C4.68659 16.6693 4.6312 16.6248 4.57461 16.5803C4.48069 16.5045 4.28803 16.3383 4.27358 16.32C4.26997 16.3161 4.25191 16.2991 4.23143 16.2821C4.21217 16.2664 4.14955 16.2075 4.09296 16.1526C3.71848 15.785 3.43671 15.4698 3.1706 15.1166C3.12484 15.0551 3.07668 14.9923 3.06343 14.9753C3.05019 14.9583 3.00804 14.8968 2.96951 14.8379C2.93218 14.7791 2.89004 14.7163 2.87679 14.698C2.86355 14.6797 2.85271 14.66 2.85271 14.6548C2.85271 14.6483 2.84669 14.6483 2.83826 14.6535C2.83104 14.6587 2.82863 14.6574 2.83224 14.6496C2.83826 14.6391 2.7925 14.5489 2.76963 14.5279C2.76601 14.524 2.75518 14.5083 2.74795 14.4913C2.71664 14.4311 2.70219 14.405 2.69256 14.3919C2.65403 14.333 2.60466 14.2428 2.4999 14.0374C2.27473 13.5952 2.13987 13.2774 1.946 12.7358C1.7991 12.3277 1.66183 11.7678 1.5643 11.1792C1.55346 11.1111 1.51974 10.8273 1.49205 10.5774C1.46074 10.2766 1.45111 9.90507 1.46676 9.50348C1.47519 9.28503 1.48603 9.05611 1.49205 8.99463C1.49807 8.93315 1.50891 8.81542 1.51734 8.73301C1.52456 8.6506 1.53901 8.54464 1.54864 8.49755C1.55707 8.45046 1.57393 8.35889 1.58356 8.29479C1.63173 7.99001 1.76057 7.41182 1.81716 7.24831C1.8292 7.21168 1.8569 7.12927 1.87737 7.06517C1.91831 6.93829 2.08087 6.48699 2.1206 6.3915C2.16154 6.29208 2.19767 6.20706 2.25546 6.07363C2.28677 6.00299 2.30724 5.9389 2.30363 5.93105C2.29881 5.9232 2.30002 5.92058 2.30604 5.92451C2.31206 5.92843 2.35781 5.84864 2.40718 5.7466C2.53723 5.47452 2.74916 5.08732 2.8491 4.93819C2.87438 4.89895 2.91171 4.84139 2.93098 4.80869C3.00925 4.6805 3.3163 4.25013 3.37048 4.19388C3.3741 4.18996 3.41745 4.13763 3.46681 4.07746C3.67152 3.8263 3.9882 3.49666 4.2796 3.23242C4.35907 3.16048 4.44818 3.08068 4.47828 3.05583C4.50838 3.03098 4.53487 3.00743 4.53849 3.0035C4.5421 2.99958 4.56859 2.97603 4.59869 2.95118C4.6288 2.92633 4.65529 2.90278 4.6589 2.89886C4.66372 2.89101 4.72151 2.84522 4.94669 2.66471C4.96956 2.64639 5.07312 2.57183 5.17547 2.49727C5.27902 2.42271 5.36933 2.35861 5.37656 2.35338C5.3886 2.34291 5.40064 2.33506 5.48252 2.28405C5.50299 2.27227 5.55838 2.23565 5.60414 2.20556C5.68241 2.15324 6.15322 1.89161 6.16887 1.89161C6.17249 1.89161 6.20379 1.87723 6.23871 1.86022C6.39766 1.78043 6.79622 1.61822 7.1093 1.50572C7.57048 1.33959 7.97988 1.2271 8.21107 1.20355C8.29897 1.19439 8.30018 1.19309 8.26405 1.17739C8.2207 1.15777 8.18699 1.163 7.77759 1.25195C7.74146 1.2598 7.68487 1.27157 7.65115 1.27942C7.36096 1.3409 6.82633 1.51488 6.42294 1.6797C6.16526 1.78304 5.74743 1.99626 5.49697 2.14931C5.44399 2.18332 5.37656 2.22257 5.35007 2.23826C5.25735 2.2919 4.96354 2.49204 4.93344 2.52212C4.92501 2.53128 4.90936 2.54044 4.89972 2.54305C4.89009 2.54567 4.87925 2.55221 4.87564 2.55744C4.87203 2.56267 4.84313 2.58622 4.80942 2.61107C4.74198 2.65947 4.4554 2.88447 4.43373 2.9054C4.4265 2.91194 4.38677 2.94726 4.34462 2.98388C3.98338 3.29914 3.55833 3.73343 3.29824 4.0513C3.24887 4.11147 3.1995 4.17034 3.18987 4.1808C3.16819 4.20304 3.00323 4.41495 2.92496 4.52222C2.8503 4.62294 2.83104 4.65041 2.71544 4.82831C2.65885 4.91465 2.60827 4.99052 2.60346 4.99837C2.57937 5.02976 2.34698 5.43527 2.34698 5.44443C2.34698 5.44705 2.3229 5.49283 2.294 5.54516C2.18442 5.74137 1.90025 6.37057 1.84727 6.5367C1.83763 6.56548 1.82198 6.60734 1.81235 6.63088C1.71481 6.8598 1.53419 7.46807 1.43907 7.88274C1.35598 8.25032 1.25965 8.90045 1.23918 9.22355C1.22955 9.3936 1.22112 9.43939 1.20306 9.43939C1.16573 9.43939 1.17536 9.05873 1.22112 8.71993C1.28253 8.26471 1.38729 7.67083 1.44388 7.45107C1.57513 6.94352 1.70397 6.5524 1.86533 6.16912C1.92072 6.04093 2.07966 5.69559 2.11819 5.62626C2.24583 5.38687 2.29761 5.29792 2.39996 5.12918C2.50472 4.95651 2.62874 4.76291 2.64801 4.74329C2.65162 4.73936 2.68052 4.69881 2.71424 4.65172C2.95988 4.30115 3.31991 3.88648 3.73774 3.47442C3.77748 3.43518 3.81842 3.39332 3.82805 3.38286C3.83769 3.37239 3.88705 3.3253 3.93642 3.27821C3.98579 3.23112 4.04239 3.17748 4.06286 3.15917C4.19892 3.02967 4.2218 3.01005 4.50477 2.76281C4.64204 2.64378 5.18631 2.23172 5.20678 2.23172C5.20919 2.23172 5.24049 2.21341 5.27541 2.19117C5.3898 2.11661 5.42111 2.0983 5.61016 1.99495C5.99187 1.78697 6.2339 1.67839 6.68183 1.51488C6.77816 1.47956 6.8781 1.44424 6.90459 1.43639C7.47415 1.25718 7.95339 1.14861 8.40734 1.09498C8.69031 1.06097 8.76136 1.05443 9.01784 1.04004C9.22495 1.02826 9.34536 1.02826 9.52357 1.03873C9.65241 1.04789 9.86915 1.05966 10.0052 1.06751C10.3604 1.08713 10.517 1.10283 10.7217 1.14076C10.9938 1.19047 10.9842 1.18785 11.3538 1.2768C11.4165 1.2925 11.5032 1.31343 11.5465 1.32259C11.5898 1.33305 11.6332 1.34613 11.6428 1.35006C11.6525 1.35398 11.7211 1.37491 11.7933 1.39715C11.8668 1.41808 11.9631 1.44686 12.0101 1.45994C12.1353 1.49657 12.1185 1.48087 11.9836 1.43378C11.9186 1.41154 11.8511 1.38145 11.8355 1.36706L11.8054 1.34221H11.8463C11.8752 1.34221 11.8849 1.33698 11.88 1.3239C11.8764 1.31343 11.8752 1.30297 11.8788 1.29904C11.8969 1.28073 12.4062 1.47694 12.6423 1.59337C12.6724 1.60906 12.729 1.63653 12.7687 1.65616C12.8614 1.70194 13.1805 1.8733 13.2202 1.89816C13.2371 1.90862 13.3214 1.95964 13.4069 2.01196C13.6019 2.12969 13.7332 2.21602 13.8343 2.29451C13.8982 2.34422 13.9752 2.38739 14.0017 2.38869C14.0162 2.38869 13.9523 2.32721 13.8837 2.27358C13.7368 2.15847 13.4334 1.95702 13.2443 1.84845C13.1877 1.81705 13.1179 1.77519 13.0878 1.75819C13.0577 1.73987 12.9577 1.68232 12.865 1.62999C12.7723 1.57767 12.6916 1.53058 12.6856 1.52404C12.6603 1.49918 12.7193 1.51488 12.8265 1.56066C12.93 1.60645 13.4466 1.88246 13.5285 1.9374C13.5514 1.9531 13.5742 1.95833 13.5887 1.95179C13.6092 1.94263 13.6044 1.93478 13.5514 1.88377C13.5189 1.85106 13.4635 1.8079 13.4298 1.78697C13.3587 1.74118 13.2588 1.64961 13.2696 1.63784C13.2889 1.6156 13.4478 1.69932 13.6898 1.86022C13.7332 1.889 13.7814 1.9217 13.7982 1.93217C13.8139 1.94263 13.8343 1.95571 13.8416 1.96356C13.85 1.9701 13.9162 2.02112 13.9909 2.07475C14.1077 2.15978 14.204 2.23434 14.316 2.32329C14.4352 2.41747 14.6881 2.62546 14.7073 2.64639C14.7206 2.65947 14.7699 2.70526 14.8157 2.74712C14.9903 2.90801 15.0999 3.01789 15.3238 3.25989C15.4647 3.41294 15.5574 3.50451 15.5611 3.49404C15.5671 3.47573 15.248 3.11862 15.1023 2.98258C15.0577 2.93941 14.9999 2.88316 14.9722 2.85569C14.9457 2.82953 14.9168 2.80729 14.9084 2.80729C14.9 2.80729 14.8952 2.80206 14.8988 2.79552C14.9024 2.78898 14.894 2.77459 14.8783 2.76412C14.8639 2.75366 14.8326 2.72619 14.8097 2.70264C14.7868 2.67909 14.7483 2.64508 14.7254 2.62677C14.7025 2.60715 14.6808 2.58884 14.6772 2.58491C14.6291 2.52997 14.2943 2.25919 14.0752 2.0983C13.8765 1.9531 13.5502 1.73333 13.4009 1.64438C13.2732 1.56851 12.8193 1.3252 12.7265 1.28335C12.6832 1.26372 12.6194 1.23364 12.5845 1.21663C12.5495 1.19963 12.5146 1.18524 12.5062 1.18524C12.4978 1.18524 12.4857 1.18 12.4785 1.17346C12.4689 1.163 12.2834 1.08844 12.0522 1.0021C12.0089 0.986405 11.9475 0.956319 11.9138 0.936697C11.8812 0.915767 11.8174 0.884373 11.7741 0.867367C11.7018 0.837281 11.6428 0.818967 11.3719 0.739173C11.2166 0.692081 11.1552 0.671151 11.1455 0.661995C11.1299 0.646297 11.1949 0.583508 11.2262 0.583508C11.2816 0.583508 11.6308 0.677692 11.8656 0.75487C12.3123 0.903994 12.8843 1.14469 13.2744 1.34875C13.4827 1.45732 13.6176 1.53973 13.9343 1.74641C14.0125 1.79743 14.0788 1.83929 14.0812 1.83929C14.0836 1.83929 14.1281 1.86807 14.1799 1.90208C14.3208 1.99626 14.3882 2.03681 14.3882 2.03027C14.3882 2.02112 14.21 1.87592 14.1426 1.83013C14.0053 1.73726 13.8596 1.64307 13.7802 1.59598C13.7344 1.56851 13.6694 1.52927 13.6357 1.50834C13.2455 1.25457 12.3195 0.833357 11.7512 0.650222C11.6139 0.605746 11.5321 0.5822 11.414 0.550806C11.355 0.536417 10.8529 0.425227 10.7518 0.405606C10.5206 0.359822 10.3388 0.33366 10.1618 0.321887C10.0594 0.314038 9.9125 0.299649 9.83664 0.289184C9.73911 0.274795 9.57896 0.269563 9.28997 0.269563C8.61686 0.269563 7.99072 0.316655 7.55482 0.400373C7.51509 0.408222 7.45247 0.419995 7.41635 0.426536C7.30677 0.444849 7.00935 0.516795 6.88653 0.552114C6.82392 0.570427 6.72398 0.600514 6.66377 0.617519C6.60477 0.634524 6.52891 0.65807 6.49519 0.668535C6.46268 0.680308 6.39766 0.701238 6.3507 0.716935C6.30494 0.731324 6.15804 0.787573 6.02558 0.841205C5.89313 0.894838 5.74141 0.956319 5.68843 0.977248C5.63545 0.998178 5.56561 1.02957 5.5343 1.04789C5.50179 1.0662 5.47048 1.08059 5.46446 1.08059C5.45724 1.08059 5.43195 1.09498 5.40787 1.11329C5.38378 1.1316 5.35609 1.14599 5.34646 1.14599C5.33682 1.14599 5.31154 1.16038 5.28986 1.1787C5.26337 1.20093 5.24772 1.20617 5.2417 1.19701C5.23206 1.18 5.28143 1.13422 5.30913 1.13291C5.31876 1.13291 5.34043 1.12114 5.35729 1.10675C5.37415 1.09236 5.39462 1.08059 5.40305 1.08059C5.41027 1.08059 5.43797 1.06882 5.46205 1.05443C5.48734 1.04004 5.51624 1.02826 5.52828 1.02826C5.53912 1.02826 5.55236 1.02172 5.55597 1.01518C5.56561 0.998178 5.73298 0.906611 5.81847 0.869984C5.85339 0.855594 5.89192 0.838589 5.90517 0.833357C5.95695 0.808503 6.39284 0.634524 6.49519 0.597898C6.82512 0.481476 7.14542 0.399065 7.74748 0.276103C7.80046 0.26433 7.88475 0.249941 7.93412 0.243401C7.98349 0.23686 8.06296 0.225087 8.10872 0.217239C8.53739 0.143985 9.57535 0.115206 9.96909 0.164914C10.0317 0.172763 10.1353 0.184536 10.1979 0.189768C10.2605 0.196309 10.4074 0.212006 10.523 0.223779C10.6386 0.235552 10.7662 0.255174 10.806 0.265639C10.8457 0.277411 10.8999 0.290493 10.9264 0.295725C10.9529 0.300957 11.0721 0.328428 11.1913 0.35459C11.3105 0.38206 11.4225 0.405606 11.4405 0.405606C11.4574 0.406914 11.4706 0.40953 11.4682 0.413455C11.4658 0.417379 11.4947 0.427844 11.5321 0.437C11.8415 0.512871 12.1281 0.612287 12.5881 0.808503C13.2323 1.0819 13.325 1.12768 13.7561 1.39192C13.85 1.44947 13.8837 1.47171 14.0113 1.56066C14.0451 1.58421 14.0764 1.60383 14.0812 1.60383C14.0848 1.60383 14.0944 1.61037 14.1029 1.61691C14.1113 1.62476 14.1847 1.67839 14.2678 1.73726C14.4436 1.86153 14.6543 2.02112 14.7916 2.13231C14.8843 2.20818 15.1492 2.44625 15.2022 2.49988C15.2155 2.51427 15.2672 2.56398 15.3154 2.61107C15.3636 2.65816 15.4154 2.70787 15.4298 2.72226C15.4431 2.73665 15.5165 2.80991 15.5924 2.88578C15.667 2.96165 15.7718 3.0676 15.8224 3.12123C15.9151 3.21803 15.9175 3.21934 15.944 3.19841L15.9705 3.17617L15.8994 3.08722C15.8175 2.9865 15.4491 2.58229 15.3576 2.49334C15.2721 2.41093 15.2384 2.37954 15.1023 2.25788C15.0373 2.19902 14.9734 2.14146 14.9602 2.12838C14.8482 2.02766 14.6519 1.8733 14.4063 1.6954C14.204 1.54889 14.1462 1.50834 13.8873 1.3409C13.2359 0.918384 12.5074 0.578276 11.7813 0.359822C11.6717 0.32712 11.526 0.290493 11.2093 0.217239C10.9757 0.163606 10.9252 0.153141 10.8517 0.137444C10.8168 0.130904 10.7578 0.119131 10.7217 0.11259C10.6855 0.104741 10.6241 0.0929685 10.5868 0.086428C10.5483 0.0785793 10.4495 0.0668064 10.3665 0.0602658C10.2834 0.0537253 10.1509 0.0393361 10.0714 0.0288713C9.92936 0.0105578 9.2984 -0.00644758 9.02988 0.00270916ZM10.7253 0.673768C10.7554 0.701238 10.7482 0.714319 10.706 0.714319C10.6711 0.714319 10.6109 0.667227 10.6338 0.65807C10.6663 0.643681 10.7012 0.650222 10.7253 0.673768ZM7.38865 0.709087C7.39347 0.726092 7.33567 0.761411 7.32363 0.749638C7.314 0.737865 7.35735 0.686849 7.373 0.692081C7.37902 0.694697 7.38624 0.702546 7.38865 0.709087ZM11.0347 0.740481C11.0564 0.765335 11.0552 0.766643 11.0275 0.766643C11.0119 0.766643 10.9902 0.760103 10.9806 0.753562C10.9649 0.741789 10.9649 0.739173 10.9806 0.7274C11.0058 0.709087 11.0095 0.710395 11.0347 0.740481ZM7.19961 0.764027C7.19961 0.784957 7.14301 0.808503 7.10207 0.80327L7.06113 0.799346L7.09725 0.777108C7.13458 0.753562 7.19961 0.745714 7.19961 0.764027ZM11.2587 0.792805C11.2816 0.812427 11.284 0.817659 11.2671 0.818967C11.2563 0.818967 11.2394 0.821584 11.231 0.825508C11.2154 0.832049 11.1612 0.792805 11.1612 0.774492C11.1612 0.756178 11.2334 0.769259 11.2587 0.792805ZM7.01056 0.801962C7.02139 0.813735 6.98407 0.858211 6.96239 0.858211C6.93951 0.858211 6.94313 0.832049 6.96841 0.811119C6.9925 0.791497 6.99972 0.788881 7.01056 0.801962ZM11.402 0.825508C11.4189 0.835973 11.4514 0.843821 11.4755 0.84513C11.5019 0.84513 11.526 0.854286 11.5381 0.868675C11.5525 0.885681 11.5694 0.890913 11.5947 0.886989C11.6175 0.883065 11.6404 0.889605 11.6525 0.90007C11.6633 0.911843 11.6994 0.923616 11.7307 0.928848C11.7632 0.932773 11.815 0.949778 11.8451 0.965475C11.8764 0.981173 11.9101 0.994254 11.9198 0.994254C11.9294 0.995562 11.9499 1.00341 11.9643 1.01257C11.9788 1.02042 11.998 1.02826 12.0089 1.02826C12.0185 1.02826 12.0414 1.03611 12.0607 1.04658C12.0787 1.05704 12.1377 1.07928 12.1907 1.09498C12.3581 1.14469 12.6025 1.25849 12.6543 1.31082C12.6772 1.33436 12.6543 1.33436 12.6037 1.31082C12.582 1.30035 12.5447 1.28335 12.5218 1.27288C12.499 1.26111 12.458 1.2441 12.4315 1.23364C12.405 1.22317 12.3159 1.18393 12.2329 1.14599C12.1498 1.10937 12.0691 1.07797 12.0522 1.07797C12.0354 1.07797 12.0113 1.06882 11.998 1.05966C11.9848 1.04919 11.9643 1.04135 11.9523 1.04135C11.9402 1.04135 11.9186 1.0335 11.9041 1.02434C11.8897 1.01388 11.856 1.00472 11.8295 1.00341C11.803 1.0021 11.7572 0.985097 11.7283 0.968092C11.697 0.949778 11.6657 0.939313 11.6525 0.944546C11.6392 0.94847 11.6115 0.940621 11.5886 0.924924C11.5658 0.910535 11.5393 0.901378 11.5296 0.905302C11.52 0.909227 11.4959 0.902686 11.4755 0.892221C11.4562 0.880448 11.4213 0.871292 11.3984 0.871292C11.3731 0.871292 11.349 0.862135 11.337 0.846438C11.3153 0.820276 11.3189 0.816351 11.3659 0.808503C11.3695 0.807194 11.3851 0.815043 11.402 0.825508ZM6.87931 0.843821C6.89496 0.871292 6.83596 0.901378 6.73 0.919692C6.70712 0.923616 6.67461 0.936697 6.65775 0.949778C6.64089 0.961551 6.62162 0.9694 6.6132 0.966783C6.60477 0.964167 6.58671 0.968092 6.57105 0.977248C6.5554 0.986405 6.53854 0.994254 6.53132 0.995562C6.52529 0.995562 6.50603 1.00341 6.49158 1.01257C6.47593 1.02303 6.46027 1.02696 6.45546 1.02303C6.45184 1.01911 6.43619 1.02434 6.42054 1.0348C6.40488 1.04658 6.38802 1.05312 6.382 1.04919C6.37719 1.04527 6.36153 1.0505 6.34949 1.06097C6.33745 1.07143 6.31698 1.08059 6.30614 1.08059C6.29531 1.08059 6.24835 1.10021 6.20379 1.12506C6.10626 1.17739 6.00391 1.21532 5.97501 1.20878C5.95213 1.20486 6.25557 1.05443 6.28808 1.05443C6.29771 1.05443 6.31216 1.04527 6.32059 1.0348C6.32902 1.02303 6.34347 1.01649 6.3531 1.02042C6.36274 1.02434 6.38321 1.01911 6.39766 1.00733C6.41331 0.99687 6.43137 0.989021 6.43619 0.991637C6.44221 0.992946 6.46027 0.986405 6.47472 0.977248C6.49038 0.968092 6.50603 0.964167 6.50964 0.968092C6.51325 0.972016 6.53132 0.964167 6.54938 0.949778C6.56744 0.935389 6.5855 0.92754 6.58911 0.932773C6.59393 0.936697 6.61079 0.930156 6.62765 0.918384C6.6445 0.906611 6.66377 0.90007 6.66979 0.903994C6.67701 0.907919 6.69387 0.902686 6.70832 0.892221C6.72277 0.880448 6.75167 0.871292 6.77214 0.871292C6.79261 0.871292 6.82031 0.862135 6.83355 0.85167C6.86004 0.829432 6.87088 0.828124 6.87931 0.843821ZM9.40075 0.850362L9.42965 0.867367L9.39111 0.884373C9.35981 0.898762 9.34897 0.898762 9.32368 0.884373L9.29358 0.866059L9.32128 0.849054C9.35619 0.828124 9.36583 0.829432 9.40075 0.850362ZM9.13343 0.860827C9.13945 0.871292 9.10212 0.883065 9.05396 0.884373C9.0371 0.885681 8.9504 0.888297 8.8613 0.889605C8.76858 0.892221 8.6867 0.90007 8.67225 0.909227C8.6578 0.917075 8.61566 0.923616 8.57953 0.923616C8.46875 0.923616 8.03406 0.991637 7.77157 1.04919C7.71858 1.06097 7.65356 1.07536 7.62707 1.08059C7.44284 1.11591 7.09123 1.21925 6.73 1.34221C6.65775 1.36706 6.38562 1.47694 6.37478 1.4861C6.36876 1.49133 6.34106 1.50311 6.31457 1.51226C6.28808 1.52142 6.24473 1.53973 6.21824 1.55282C6.19175 1.5659 6.0894 1.6156 5.98946 1.6627C5.80041 1.75426 5.51503 1.90731 5.38138 1.98841C5.33803 2.01588 5.29347 2.04074 5.28264 2.04466C5.2706 2.04859 5.26096 2.05644 5.26096 2.06298C5.26096 2.06952 5.25494 2.07475 5.24892 2.07475C5.23327 2.07475 4.97318 2.2448 4.76125 2.39393C4.56739 2.52997 4.36268 2.68564 4.16882 2.84392C4.08453 2.91194 4.02914 2.94987 4.01951 2.94333C4.00265 2.93287 4.0159 2.91979 4.1929 2.77328C4.25793 2.71965 4.31813 2.66994 4.32536 2.66209C4.35185 2.63854 4.60351 2.44364 4.74921 2.33375C4.82868 2.27489 4.89972 2.22126 4.90575 2.21602C4.91297 2.20948 5.00208 2.1467 5.10443 2.07737C5.41509 1.86414 5.65351 1.72156 5.91721 1.59075C6.02919 1.5345 6.24714 1.43378 6.28447 1.4207C6.30133 1.41416 6.36033 1.39192 6.41692 1.36837C6.47352 1.34613 6.54697 1.31866 6.57948 1.3082C6.6132 1.29773 6.65052 1.28335 6.66377 1.2768C6.7312 1.24279 7.21767 1.10806 7.49462 1.04789C8.01239 0.934081 8.39891 0.876524 8.69031 0.867367C8.78424 0.864751 8.86491 0.858211 8.86973 0.852978C8.88057 0.842513 9.12621 0.847746 9.13343 0.860827ZM9.25866 0.856903C9.25866 0.875216 9.21411 0.886989 9.18521 0.877832C9.16474 0.869984 9.16233 0.866059 9.17558 0.856903C9.19845 0.841205 9.25866 0.842513 9.25866 0.856903ZM9.54163 0.856903C9.55126 0.873908 9.51273 0.894838 9.48624 0.888297C9.4465 0.876524 9.46216 0.84513 9.50671 0.84513C9.52236 0.84513 9.53681 0.850362 9.54163 0.856903ZM9.72707 0.856903C9.74994 0.8726 9.73309 0.897454 9.69817 0.897454C9.66084 0.897454 9.65 0.876524 9.67649 0.859519C9.70298 0.842513 9.7066 0.842513 9.72707 0.856903ZM9.9992 0.876524C10.0221 0.894838 10.0221 0.896146 9.99077 0.911843C9.96428 0.923616 9.95103 0.923616 9.91973 0.910535L9.8824 0.89353L9.9113 0.876524C9.94742 0.854286 9.9715 0.854286 9.9992 0.876524ZM9.10935 0.928848C9.13102 0.947162 9.13102 0.94847 9.09972 0.956319C9.08045 0.961551 9.05757 0.962859 9.04794 0.958935C9.03831 0.953702 9.02747 0.956319 9.02386 0.962859C9.01422 0.979865 8.98051 0.978556 8.95763 0.962859C8.94198 0.951086 8.94198 0.94847 8.95763 0.936697C8.96726 0.928848 8.98894 0.926232 9.00579 0.928848C9.02265 0.932773 9.04433 0.930156 9.05396 0.922308C9.07804 0.906611 9.08165 0.907919 9.10935 0.928848ZM9.24662 0.938005C9.24662 0.953702 9.19123 0.966783 9.17317 0.955011C9.16233 0.94847 9.16353 0.941929 9.17919 0.930156C9.20086 0.913151 9.24662 0.918384 9.24662 0.938005ZM9.36703 0.923616C9.38269 0.935389 9.38269 0.938005 9.36703 0.949778C9.34415 0.966783 9.30442 0.961551 9.2984 0.940621C9.29478 0.928848 9.30683 0.919692 9.34295 0.911843C9.34656 0.911843 9.3574 0.917075 9.36703 0.923616ZM9.51996 0.924924L9.55367 0.939313L9.52116 0.957627C9.49708 0.972016 9.48142 0.972016 9.45012 0.960243C9.41399 0.947162 9.41279 0.944546 9.43326 0.92754C9.46095 0.906611 9.4754 0.906611 9.51996 0.924924ZM9.7367 0.940621C9.74874 0.955011 9.73549 0.962859 9.68733 0.972016C9.63676 0.981173 9.5609 0.952394 9.58618 0.934081C9.60304 0.921 9.72345 0.92754 9.7367 0.940621ZM10.0076 0.955011L10.0594 0.972016L10.0257 0.987713C10.0064 0.995562 9.97271 1.0021 9.94862 1.0021C9.89324 1.0021 9.77162 0.962859 9.78486 0.949778C9.81135 0.921 9.91371 0.923616 10.0076 0.955011ZM10.458 0.989021C10.6121 1.0178 10.9264 1.08059 10.9745 1.09367C11.001 1.10021 11.0986 1.12376 11.1913 1.14599C11.284 1.16823 11.3719 1.1957 11.3864 1.20617C11.4008 1.21532 11.4345 1.22317 11.461 1.22186C11.4875 1.22056 11.5224 1.22971 11.5393 1.24149C11.5561 1.25457 11.5874 1.26372 11.6091 1.26372C11.6308 1.26372 11.6597 1.27288 11.6717 1.28335C11.685 1.29381 11.7066 1.30297 11.7199 1.30297C11.7343 1.30297 11.7548 1.31212 11.7669 1.32128C11.7861 1.33829 11.7861 1.33959 11.762 1.34613C11.7476 1.35006 11.7247 1.34483 11.7103 1.33436C11.697 1.3252 11.6693 1.31605 11.6489 1.31605C11.6296 1.31605 11.6019 1.30689 11.5898 1.29643C11.5766 1.28596 11.5441 1.2768 11.5164 1.2768C11.4899 1.2768 11.4574 1.26896 11.4441 1.25849C11.4153 1.23756 11.2852 1.20617 11.119 1.18C11.0998 1.17739 11.0179 1.16169 10.9384 1.14599C10.8589 1.1316 10.7638 1.11329 10.7277 1.10675C10.6916 1.10021 10.6145 1.08582 10.5567 1.07536C10.3171 1.02826 10.2135 1.00864 10.1353 0.995562C10.11 0.991637 10.0895 0.981173 10.0895 0.973324C10.0895 0.956319 10.3303 0.966783 10.458 0.989021ZM10.8614 1.0021C10.8915 1.02042 10.8903 1.03611 10.8577 1.04527C10.83 1.05312 10.7759 1.02434 10.7759 1.0021C10.7759 0.985097 10.8312 0.985097 10.8614 1.0021ZM11.1431 1.07274C11.1528 1.0819 11.1564 1.09367 11.1528 1.0989C11.1371 1.1146 11.1046 1.10675 11.0829 1.08059C11.0612 1.05443 11.0624 1.05443 11.0937 1.05443C11.1118 1.05443 11.1347 1.06228 11.1431 1.07274ZM11.7873 1.12637C11.7958 1.13815 11.7994 1.14992 11.7945 1.15515C11.7837 1.16823 11.7235 1.14207 11.7175 1.12245C11.7103 1.0989 11.7693 1.10283 11.7873 1.12637ZM5.20076 1.20224C5.20076 1.2114 5.18149 1.22971 5.15861 1.24149C5.11045 1.26634 5.10202 1.24803 5.14416 1.21009C5.17547 1.18131 5.20076 1.1787 5.20076 1.20224ZM5.92925 1.23233C5.91601 1.2441 5.85339 1.27942 5.79078 1.31082C5.66675 1.37491 5.34405 1.5502 5.20316 1.63261C5.1538 1.66008 5.10443 1.68886 5.09118 1.6954C5.05867 1.71371 5.0394 1.72418 4.83591 1.83667C4.73596 1.89161 4.63723 1.94525 4.61676 1.9544C4.49273 2.01458 4.80339 1.79743 5.0382 1.6627C5.36933 1.4704 5.66675 1.31474 5.8269 1.24933C5.93166 1.20748 5.96658 1.20093 5.92925 1.23233ZM5.09238 1.25457C5.09238 1.27811 4.99967 1.35922 4.98401 1.34875C4.96234 1.33436 4.97077 1.31736 5.02375 1.27811C5.08034 1.23364 5.09238 1.22971 5.09238 1.25457ZM7.15144 1.25718C7.15144 1.28073 7.10809 1.3082 7.09725 1.28989C7.08883 1.27419 7.11532 1.23887 7.13699 1.23756C7.14422 1.23756 7.15144 1.24672 7.15144 1.25718ZM12.1365 1.25064C12.151 1.2598 12.151 1.26634 12.1401 1.27811C12.1281 1.29119 12.1185 1.29119 12.0944 1.27942C12.0775 1.27157 12.0643 1.25849 12.0643 1.25064C12.0643 1.23364 12.1124 1.23364 12.1365 1.25064ZM7.01899 1.29643C7.01899 1.31866 6.97564 1.34744 6.95878 1.33567C6.95156 1.33044 6.95758 1.31605 6.97323 1.30297C7.00695 1.27288 7.01899 1.27026 7.01899 1.29643ZM12.3641 1.34744C12.3749 1.36183 12.3737 1.36706 12.3593 1.3736C12.3376 1.38276 12.2931 1.36052 12.2931 1.34221C12.2931 1.32259 12.3484 1.32651 12.3641 1.34744ZM6.80586 1.36837C6.79984 1.39323 6.7589 1.41677 6.74565 1.40238C6.73843 1.39453 6.789 1.34352 6.80465 1.34221C6.80826 1.34221 6.80947 1.35398 6.80586 1.36837ZM6.72759 1.39715C6.72518 1.41677 6.71434 1.42854 6.69748 1.43116C6.66377 1.43639 6.66257 1.42854 6.69146 1.39584C6.71916 1.36183 6.7324 1.36183 6.72759 1.39715ZM6.65414 1.43901C6.64932 1.45078 6.63487 1.45994 6.62162 1.45994C6.59273 1.45994 6.59152 1.45471 6.61801 1.4207C6.64089 1.39192 6.66618 1.405 6.65414 1.43901ZM12.5447 1.41939C12.5688 1.43378 12.5977 1.45471 12.6073 1.46779C12.623 1.48872 12.6206 1.49003 12.5724 1.48087C12.5267 1.47302 12.4255 1.41808 12.4255 1.40107C12.4255 1.38538 12.5038 1.39715 12.5447 1.41939ZM12.9854 1.44947C13.0348 1.47694 13.0745 1.52534 13.0492 1.52534C13.0047 1.52534 12.8542 1.44032 12.865 1.4207C12.8722 1.40762 12.9385 1.42331 12.9854 1.44947ZM6.5855 1.45209C6.5855 1.47171 6.56021 1.4861 6.5277 1.4861C6.51085 1.48479 6.51325 1.47956 6.53613 1.45994C6.56864 1.42985 6.5855 1.42724 6.5855 1.45209ZM3.98459 3.01266C3.98338 3.03228 3.8413 3.15655 3.80397 3.17094C3.77868 3.18141 3.79434 3.13562 3.82324 3.11469C3.84009 3.10292 3.86538 3.08199 3.87983 3.06891C3.97375 2.98258 3.98459 2.97603 3.98459 3.01266ZM2.02186 4.12717C2.02186 4.15071 1.97972 4.17818 1.96647 4.1638C1.95925 4.15595 1.99899 4.10231 2.01223 4.10231C2.01825 4.10231 2.02186 4.11409 2.02186 4.12717ZM1.91108 4.29461C1.90868 4.30769 1.89543 4.31946 1.87978 4.32208C1.84847 4.32731 1.84606 4.31423 1.87496 4.29068C1.90386 4.26714 1.9159 4.26844 1.91108 4.29461ZM1.86051 4.38356C1.85449 4.40187 1.80512 4.41234 1.80512 4.39533C1.80512 4.39141 1.81716 4.37702 1.83282 4.36394C1.85931 4.33908 1.87376 4.34955 1.86051 4.38356ZM1.82077 4.44242C1.81596 4.45943 1.80392 4.46858 1.78345 4.46858C1.75334 4.46858 1.75334 4.46858 1.77622 4.44373C1.80633 4.40972 1.8292 4.40972 1.82077 4.44242ZM1.77863 4.50259C1.77502 4.52745 1.73769 4.55623 1.72685 4.54445C1.71842 4.5353 1.75696 4.48166 1.77261 4.48166C1.77863 4.48166 1.78104 4.49082 1.77863 4.50259ZM1.65581 4.72366C1.64979 4.74198 1.60042 4.75244 1.60042 4.73544C1.60042 4.73151 1.61246 4.71712 1.62811 4.70404C1.65461 4.67919 1.66905 4.68965 1.65581 4.72366ZM1.58236 4.83485C1.59079 4.85055 1.53901 4.90157 1.52576 4.8911C1.51131 4.88195 1.51493 4.86494 1.5354 4.8427C1.55707 4.81785 1.57152 4.81654 1.58236 4.83485ZM16.9795 4.98136C17.0253 5.03761 17.0373 5.07031 17.012 5.07031C16.9976 5.07031 16.9627 5.02715 16.9253 4.96305C16.8892 4.90418 16.9277 4.91726 16.9795 4.98136ZM1.49566 4.99313C1.45954 5.03369 1.43425 5.01145 1.46917 4.9709C1.48844 4.94866 1.50048 4.94343 1.50891 4.95258C1.51734 4.96174 1.51372 4.97482 1.49566 4.99313ZM17.0662 5.14749C17.1132 5.21682 17.1192 5.24037 17.0915 5.24037C17.0819 5.24037 17.0734 5.23513 17.0734 5.22859C17.0734 5.22336 17.0578 5.1972 17.0373 5.17365C17.0012 5.12918 16.994 5.10825 17.0096 5.09255C17.0205 5.07947 17.0193 5.07816 17.0662 5.14749ZM1.4198 5.15011C1.4198 5.15796 1.40776 5.17496 1.39331 5.18804C1.35959 5.21813 1.33912 5.19327 1.36802 5.15926C1.3897 5.1331 1.4198 5.12787 1.4198 5.15011ZM17.1457 5.30839C17.1926 5.39341 17.1674 5.41434 17.1168 5.33193C17.0807 5.27176 17.0795 5.26653 17.1035 5.26653C17.1132 5.26653 17.1324 5.28615 17.1457 5.30839ZM1.28373 5.39341C1.24761 5.45882 1.02244 5.98337 1.0104 6.03177C1.00197 6.06709 0.968254 6.16781 0.935742 6.25415C0.903231 6.34048 0.859882 6.45821 0.840616 6.51577C0.820146 6.57333 0.791247 6.6492 0.774389 6.68452C0.757532 6.71853 0.746694 6.75515 0.750307 6.76431C0.753919 6.77478 0.747899 6.78916 0.738266 6.79701C0.728633 6.80617 0.721408 6.82972 0.721408 6.84934C0.721408 6.86896 0.712979 6.8925 0.703346 6.90166C0.693713 6.91082 0.685284 6.93436 0.685284 6.95529C0.685284 6.97492 0.680468 6.99585 0.673243 6.99977C0.667222 7.00369 0.661202 7.02724 0.661202 7.05079C0.661202 7.07433 0.652773 7.10442 0.64314 7.11881C0.633507 7.13189 0.625078 7.15936 0.625078 7.17767C0.625078 7.19729 0.616649 7.21953 0.607016 7.22869C0.593771 7.24046 0.590158 7.25747 0.594975 7.2797C0.598587 7.30063 0.594975 7.32418 0.584137 7.33988C0.5733 7.35427 0.564871 7.38697 0.564871 7.41313C0.564871 7.44322 0.556443 7.46807 0.540789 7.48377C0.519115 7.50601 0.517911 7.5047 0.509482 7.472C0.504665 7.44845 0.509482 7.42621 0.523931 7.40136C0.535972 7.38174 0.544401 7.35296 0.541993 7.33595C0.540789 7.31895 0.549218 7.29017 0.560055 7.27055C0.572096 7.25093 0.580525 7.22738 0.579321 7.21822C0.576913 7.20776 0.584137 7.18683 0.594975 7.16852C0.604608 7.15151 0.611832 7.12012 0.610628 7.09919C0.609424 7.07695 0.616649 7.04948 0.629894 7.03378C0.641936 7.01939 0.647956 7.00108 0.64314 6.99454C0.639527 6.98669 0.64314 6.96445 0.652773 6.94483C0.662406 6.9239 0.676855 6.88466 0.685284 6.85588C0.692509 6.8271 0.709367 6.77347 0.721408 6.73815C0.733449 6.70152 0.757532 6.62303 0.775594 6.56155C0.816534 6.41505 0.888781 6.22275 0.956212 6.07886C0.985111 6.01477 1.01281 5.94413 1.01642 5.92189C1.02364 5.87741 1.19824 5.48629 1.23798 5.42481C1.25243 5.40257 1.27049 5.38426 1.27651 5.38426C1.28373 5.38426 1.28614 5.38818 1.28373 5.39341ZM17.2902 5.61579C17.2902 5.63149 17.3094 5.67073 17.3323 5.70344C17.3552 5.73745 17.3745 5.77015 17.3745 5.778C17.3745 5.80285 17.3335 5.78323 17.3179 5.75053C17.3094 5.73221 17.295 5.69951 17.2854 5.67858C17.2155 5.52815 17.1698 5.42089 17.1698 5.4065C17.1698 5.39865 17.1975 5.43527 17.23 5.48891C17.2625 5.54254 17.2902 5.6001 17.2902 5.61579ZM17.4046 5.85648C17.4094 5.87087 17.4094 5.88657 17.4046 5.8918C17.3961 5.90096 17.3745 5.86957 17.3745 5.84471C17.3745 5.81855 17.3961 5.8264 17.4046 5.85648ZM17.23 6.15473C17.2516 6.20052 17.242 6.21229 17.2119 6.17697C17.177 6.13642 17.1758 6.12988 17.1999 6.12988C17.2095 6.12988 17.2227 6.14165 17.23 6.15473ZM17.7357 6.55501C17.7502 6.57463 17.7417 6.60603 17.7249 6.59426C17.7104 6.5851 17.6996 6.53539 17.7116 6.53539C17.7164 6.53539 17.7273 6.54455 17.7357 6.55501ZM17.7718 6.67013C17.7718 6.69629 17.7417 6.66882 17.7381 6.63873C17.7357 6.60865 17.7357 6.60865 17.7538 6.63219C17.7634 6.64658 17.7718 6.66359 17.7718 6.67013ZM17.8561 6.9723C17.8405 6.9893 17.7899 6.93698 17.8019 6.91474C17.808 6.90428 17.8188 6.9082 17.8393 6.92913C17.8597 6.95006 17.8645 6.96314 17.8561 6.9723ZM17.8754 7.06779C17.8959 7.09788 17.8971 7.12404 17.8766 7.12404C17.8573 7.12404 17.8284 7.07433 17.8381 7.05863C17.8489 7.04032 17.8573 7.04294 17.8754 7.06779ZM17.9284 7.28624V7.33988L17.9043 7.30717C17.8802 7.27447 17.873 7.21561 17.8886 7.19729C17.9055 7.18029 17.9284 7.23261 17.9284 7.28624ZM17.9693 7.45368C17.9898 7.50862 18.0006 7.55571 18.0319 7.75193C18.0416 7.81341 18.0656 7.94422 18.0849 8.04233C18.1222 8.22416 18.1307 8.34581 18.109 8.3602C18.103 8.36412 18.0969 8.36674 18.0969 8.36412C18.0969 8.36151 18.0777 8.27125 18.0548 8.16398C18.0066 7.94161 17.9284 7.4733 17.9284 7.40921C17.9284 7.38043 17.9524 7.40528 17.9693 7.45368ZM0.514298 7.64205C0.507073 7.65905 0.493828 7.67344 0.484195 7.67344C0.461317 7.67344 0.464929 7.60673 0.489012 7.5688L0.509482 7.5374L0.517911 7.57403C0.523931 7.59496 0.521523 7.62374 0.514298 7.64205ZM0.484195 7.75455C0.49142 7.78463 0.464929 7.8435 0.444459 7.8435C0.426397 7.8435 0.425193 7.78594 0.442051 7.75455C0.463725 7.71792 0.475766 7.71792 0.484195 7.75455ZM0.443255 7.99655C0.444459 8.03056 0.403519 8.10904 0.392681 8.09596C0.377028 8.08027 0.384253 7.99916 0.404723 7.9573C0.422785 7.91937 0.425193 7.91806 0.433622 7.94161C0.438438 7.956 0.443255 7.98085 0.443255 7.99655ZM0.369803 8.3759C0.36017 8.50278 0.343312 8.55642 0.331271 8.49624C0.314413 8.41252 0.320434 8.34189 0.348129 8.29087C0.361374 8.26863 0.373415 8.24901 0.375824 8.24901C0.377028 8.24901 0.37462 8.30657 0.369803 8.3759ZM18.1042 10.8391C18.0921 10.9516 18.0693 10.9751 18.0632 10.8822C18.0596 10.8286 18.0873 10.7344 18.1054 10.7344C18.1114 10.7344 18.1102 10.7815 18.1042 10.8391ZM18.0247 11.5363C18.0247 11.5664 18.0042 11.5978 17.9862 11.5978C17.9717 11.5978 17.9753 11.5389 17.991 11.5219C18.0127 11.4983 18.0247 11.5036 18.0247 11.5363ZM18.2896 11.5965C18.2896 11.6108 18.28 11.6318 18.2691 11.6449C18.2487 11.6671 18.2475 11.6671 18.2438 11.6383C18.239 11.6095 18.2595 11.5716 18.2788 11.5716C18.2848 11.5716 18.2896 11.5834 18.2896 11.5965ZM1.08265 14.3487C1.08265 14.3566 1.10191 14.4023 1.12479 14.4507C1.14767 14.5005 1.16693 14.5436 1.16693 14.5489C1.16693 14.5724 1.12359 14.5148 1.10312 14.4625C1.08987 14.4298 1.0694 14.3893 1.05736 14.3723C1.04411 14.3553 1.03448 14.3291 1.03448 14.3147C1.03448 14.2898 1.03568 14.2885 1.05856 14.3121C1.07181 14.3252 1.08265 14.3422 1.08265 14.3487ZM1.20667 14.6326C1.21751 14.6613 1.22714 14.6888 1.22714 14.6927C1.22714 14.7097 1.18259 14.6391 1.17416 14.609C1.15971 14.5593 1.18379 14.5776 1.20667 14.6326ZM1.31143 14.8C1.34033 14.8419 1.34755 14.8602 1.33792 14.8706C1.32949 14.8798 1.32227 14.8837 1.31986 14.8798C1.31625 14.8772 1.29457 14.8458 1.27049 14.8105C1.23677 14.7621 1.22955 14.7438 1.24159 14.7359C1.25002 14.7294 1.25965 14.7294 1.26447 14.7346C1.26808 14.7398 1.28855 14.7686 1.31143 14.8ZM1.37525 14.9256C1.38368 14.9204 1.38609 14.9204 1.38127 14.9269C1.37645 14.9321 1.3909 14.9622 1.41258 14.9923C1.43907 15.0276 1.45111 15.0525 1.44388 15.0629C1.43064 15.0878 1.4186 15.076 1.36562 14.9936C1.33912 14.9517 1.32467 14.9164 1.32949 14.9073C1.33672 14.8955 1.34153 14.8968 1.34996 14.9125C1.35598 14.9243 1.36802 14.9295 1.37525 14.9256ZM1.53299 15.2108C1.57032 15.2644 1.58477 15.2958 1.57634 15.3049C1.56309 15.3193 1.55587 15.3102 1.49084 15.2108C1.46074 15.165 1.45352 15.1296 1.47399 15.1296C1.47519 15.1296 1.50289 15.1663 1.53299 15.2108Z" fill="#009B10"/>
<path d="M19.8313 0.563986C19.7422 0.624158 19.6555 0.681715 19.6387 0.69218C19.5881 0.722266 19.1305 1.02967 19.0787 1.06761C19.0522 1.08723 19.0246 1.10554 19.0185 1.10816C19.0113 1.11077 18.9282 1.16571 18.8343 1.23112C18.7404 1.29522 18.6477 1.35801 18.6296 1.36978C18.6115 1.38155 18.5272 1.4378 18.4406 1.49536C18.3551 1.55161 18.2708 1.60785 18.2551 1.61832C18.2383 1.62878 18.219 1.64187 18.213 1.6471C18.2057 1.65233 18.1479 1.69157 18.0853 1.73474C18.0227 1.77791 17.9649 1.81846 17.9565 1.82631C17.9481 1.83285 17.936 1.83939 17.9288 1.83939C17.9216 1.83939 17.918 1.84462 17.9216 1.84985C17.9252 1.85639 17.9216 1.86163 17.9131 1.86163C17.9047 1.86163 17.812 1.92311 17.706 1.99898C17.6001 2.07354 17.4219 2.20173 17.3087 2.28153C17.0052 2.49737 16.526 2.84794 16.4273 2.92773C16.3791 2.96567 16.3117 3.01799 16.2791 3.04285C16.2201 3.08732 15.8818 3.35548 15.8457 3.38688C15.8348 3.39604 15.7915 3.42874 15.7493 3.46144C15.706 3.49284 15.6662 3.52423 15.659 3.53077C15.653 3.536 15.5603 3.61056 15.4531 3.69428C15.2255 3.8748 15.1051 3.97291 14.945 4.11288C14.8812 4.16782 14.7981 4.23846 14.7619 4.26854C14.7258 4.29863 14.6849 4.33395 14.6716 4.34703C14.6512 4.36665 14.4585 4.54324 14.3826 4.60996C14.3694 4.62304 14.3068 4.67798 14.2442 4.73554C14.1816 4.79178 14.1033 4.86242 14.0696 4.89251C13.9468 5.0037 13.6578 5.27448 13.6012 5.33203C13.5687 5.36474 13.5361 5.39613 13.5289 5.40398C13.0232 5.88798 12.2212 6.75656 11.7865 7.28765C11.7577 7.32297 11.7312 7.35567 11.7275 7.3596C11.7239 7.36352 11.6758 7.42239 11.6192 7.49041C11.5626 7.55843 11.5144 7.61729 11.5108 7.62122C11.4687 7.66569 11.3013 7.88938 11.3037 7.89723C11.3049 7.90377 11.3013 7.90769 11.2953 7.90639C11.2892 7.90377 11.2844 7.90508 11.2856 7.909C11.2856 7.91293 11.2652 7.93909 11.2387 7.96787C11.2122 7.99664 11.1724 8.04635 11.1496 8.07906C11.1267 8.11176 11.0918 8.15885 11.0713 8.18501C11.052 8.21117 11.0255 8.24518 11.0135 8.26088C11.0015 8.27658 10.9473 8.34983 10.8931 8.42309C10.8389 8.49634 10.7799 8.57483 10.7606 8.59707C10.7426 8.6193 10.7064 8.66901 10.68 8.70825C10.6258 8.78805 10.6318 8.77889 10.5571 8.88485C10.5258 8.92932 10.5042 8.96857 10.5078 8.9738C10.5114 8.97772 10.5102 8.98165 10.503 8.98165C10.4957 8.98165 10.456 9.03266 10.4138 9.09545C10.3717 9.15955 10.3356 9.21318 10.3308 9.21711C10.3067 9.24065 10.1706 9.44864 10.1706 9.46172C10.1706 9.47088 10.1658 9.4748 10.161 9.47088C10.1562 9.46826 10.1453 9.47742 10.1369 9.49312C10.1297 9.51012 10.0803 9.58338 10.0285 9.65663C9.97554 9.72989 9.9334 9.7966 9.9334 9.80445C9.9334 9.8123 9.92858 9.81884 9.92377 9.81884C9.90811 9.81884 9.61912 10.2636 9.39275 10.6364C9.27956 10.8235 9.18202 10.9831 9.17721 10.9896C9.13868 11.0498 9.00502 11.2761 8.84607 11.5521L8.78828 11.6528L8.75938 11.6057C8.7064 11.522 8.67509 11.4749 8.65341 11.4474C8.63415 11.4252 8.5908 11.3624 8.38971 11.0576C8.36442 11.0197 8.32228 10.9543 8.29458 10.9111C8.16213 10.7044 8.0658 10.5802 7.88277 10.3761C7.75273 10.2322 7.67807 10.1603 7.66844 10.1668C7.65881 10.172 7.6564 10.1707 7.66242 10.1603C7.66844 10.1511 7.66001 10.1341 7.64315 10.1184C7.6287 10.104 7.52876 9.99935 7.4228 9.88686C7.2482 9.70111 7.03025 9.47873 6.85084 9.30213C6.81471 9.26551 6.75571 9.20664 6.71838 9.17002C6.68226 9.13339 6.57148 9.02482 6.47154 8.92932C6.3728 8.83383 6.26322 8.72788 6.23071 8.69517C6.14401 8.61015 6.08501 8.5539 5.99591 8.47149C5.95256 8.43224 5.91523 8.39692 5.91162 8.39169C5.89235 8.36815 5.44442 7.96917 5.30353 7.85014C5.14339 7.7154 4.90979 7.54273 4.8845 7.54273C4.87246 7.54273 4.82911 7.59636 4.82791 7.61206C4.82791 7.6186 4.77733 7.70232 4.71713 7.79912C4.65572 7.89723 4.60033 7.98618 4.5931 7.99795C4.58708 8.00973 4.56179 8.04897 4.53771 8.0856C4.49195 8.15623 4.30411 8.44402 4.27039 8.49765C4.1849 8.63369 3.86942 9.10723 3.7755 9.24196C3.72854 9.30867 3.67435 9.38847 3.65388 9.41986C3.55033 9.57945 3.41547 9.77305 3.395 9.79267C3.39138 9.7966 3.37452 9.82014 3.35887 9.845C3.34322 9.86985 3.31432 9.90779 3.29626 9.93003C3.25411 9.97973 3.25411 10.002 3.29626 10.002C3.36008 10.002 3.59368 10.0595 3.66592 10.0935C3.67917 10.0988 3.71168 10.1132 3.73817 10.1236C3.95251 10.21 4.32699 10.465 4.70147 10.779C4.72796 10.8012 4.75205 10.8222 4.75566 10.8261C4.75927 10.83 4.78576 10.8535 4.81586 10.8784C4.84597 10.9033 4.87246 10.9268 4.87607 10.9307C4.87968 10.9347 4.91219 10.9634 4.94832 10.9961C4.98444 11.0288 5.02297 11.0642 5.03261 11.0746C5.04224 11.0851 5.09161 11.1322 5.14098 11.1793C5.40829 11.4317 6.07658 12.1603 6.16087 12.2912C6.17051 12.3055 6.18375 12.3147 6.18977 12.3095C6.19579 12.3055 6.1994 12.3082 6.1982 12.3147C6.19579 12.3212 6.2271 12.367 6.26684 12.4154C6.30657 12.4651 6.35835 12.5292 6.38123 12.558C6.40411 12.5881 6.42698 12.6143 6.4306 12.6182C6.43662 12.6247 6.67263 12.9308 6.70273 12.9714C6.70995 12.9818 6.75089 13.0355 6.79304 13.0904C6.90502 13.2356 6.91104 13.2448 7.18799 13.632C7.32767 13.8282 7.49143 14.0702 7.60462 14.2481C7.89241 14.7046 8.17417 15.1415 8.40416 15.4895C8.46196 15.5758 8.52457 15.6726 8.54504 15.7053C8.56551 15.738 8.60043 15.7877 8.62331 15.8152L8.66425 15.8662L8.69797 15.7956C8.71723 15.7563 8.75576 15.6778 8.78346 15.6203C8.81236 15.5627 8.86052 15.462 8.89183 15.3979C9.08569 14.9989 9.21574 14.736 9.29521 14.5803C9.32652 14.5189 9.36866 14.4365 9.38793 14.3972C9.4084 14.358 9.4373 14.2991 9.45416 14.2664C9.47102 14.2337 9.50834 14.1578 9.53845 14.0963C9.56975 14.0349 9.66488 13.8504 9.75158 13.6843C9.83827 13.5195 9.90691 13.3769 9.9033 13.3664C9.90089 13.3573 9.90209 13.352 9.90811 13.356C9.91413 13.3599 9.94062 13.3233 9.96712 13.2749C9.99361 13.2265 10.0574 13.11 10.108 13.0172C10.1598 12.923 10.2152 12.8209 10.232 12.7882C10.2489 12.7555 10.2874 12.6823 10.3187 12.6247C10.35 12.5672 10.4235 12.4311 10.4813 12.3239C10.5391 12.2153 10.633 12.0426 10.6896 11.938C10.8257 11.6855 11.0171 11.3375 11.0809 11.229C11.27 10.9019 11.388 10.6979 11.4386 10.6102C11.4542 10.5815 11.5024 10.503 11.5433 10.4363C11.5855 10.3695 11.6192 10.312 11.6192 10.3094C11.6192 10.2976 12.1249 9.48004 12.2309 9.31783C12.2923 9.22496 12.3417 9.14778 12.3417 9.14385C12.3417 9.13731 12.5885 8.7645 12.739 8.54343C12.7836 8.47803 12.8534 8.37338 12.8968 8.30928C12.9389 8.24518 13.0051 8.14969 13.0437 8.09737C13.081 8.04374 13.1123 7.99795 13.1123 7.99403C13.1123 7.97833 13.3483 7.64084 13.5988 7.29942C13.6529 7.22617 13.718 7.13591 13.7445 7.09798C13.7709 7.06004 13.8119 7.0051 13.8348 6.97501C13.8576 6.94493 13.8962 6.89391 13.9191 6.86252C14.025 6.71862 14.2984 6.37198 14.3525 6.31311C14.3562 6.30919 14.3802 6.28041 14.4055 6.24771C14.432 6.215 14.4862 6.14698 14.5271 6.09727C14.5681 6.04626 14.65 5.94684 14.7078 5.8749C14.7656 5.80295 14.8498 5.69961 14.8944 5.64598C14.939 5.59235 14.9967 5.52171 15.022 5.48901C15.0473 5.4563 15.0979 5.39482 15.1352 5.35165C15.1713 5.30849 15.2496 5.2143 15.3098 5.14236C15.5061 4.90559 16.172 4.17436 16.5139 3.81986C16.6404 3.68905 16.7861 3.53731 16.8391 3.48106C16.892 3.42612 16.9595 3.35679 16.9896 3.32671C17.0197 3.29793 17.1148 3.20244 17.2003 3.11479C17.287 3.02584 17.3761 2.9382 17.399 2.91727C17.4207 2.89634 17.4592 2.8584 17.4833 2.83355C17.5061 2.8087 17.5495 2.76422 17.5796 2.73675C17.6097 2.70797 17.6856 2.63472 17.7482 2.57324C17.8108 2.51176 17.8867 2.43719 17.9168 2.40842C17.9469 2.37964 17.9733 2.35347 17.977 2.34955C17.9806 2.34563 18.0047 2.32339 18.0311 2.29853C18.0576 2.27499 18.107 2.22659 18.1395 2.19389C18.1732 2.15988 18.2238 2.11278 18.2527 2.08793C18.2828 2.06308 18.3177 2.03037 18.331 2.01598C18.3514 1.99505 18.7319 1.63794 18.8921 1.49143C18.909 1.47574 18.9872 1.40248 19.0667 1.32792C19.1462 1.25336 19.2461 1.15917 19.2895 1.11993C19.3328 1.08069 19.3701 1.04537 19.3737 1.04144C19.3774 1.03752 19.4147 1.0022 19.458 0.962958C19.5014 0.923715 19.5556 0.872699 19.5784 0.849153C19.6013 0.825607 19.6242 0.805985 19.6302 0.805985C19.635 0.805985 19.6387 0.79552 19.6387 0.783747C19.6387 0.771974 19.6423 0.765434 19.6459 0.770666C19.6507 0.774591 19.6868 0.748429 19.7278 0.710493C19.7699 0.672558 19.8301 0.618926 19.8626 0.590148C19.9349 0.52605 20.0083 0.452797 19.9999 0.454105C19.9963 0.454105 19.9204 0.503813 19.8313 0.563986Z" fill="#009B10"/>
<path d="M2.84647 2.79518C2.84045 2.80172 2.81035 2.82919 2.78145 2.85666C2.67067 2.95738 2.5611 3.07903 2.56832 3.09212C2.57193 3.09996 2.56953 3.11043 2.5623 3.11566C2.55267 3.12089 2.55146 3.11959 2.55628 3.11043C2.5611 3.10127 2.55989 3.09473 2.55508 3.09473C2.54303 3.09473 2.38529 3.27917 2.27933 3.41522C2.2408 3.46493 2.20106 3.51333 2.19143 3.52117C2.1818 3.53033 2.17818 3.5421 2.18421 3.55257C2.19023 3.56303 2.18902 3.56696 2.18059 3.56042C2.16494 3.54995 1.94338 3.85212 1.95663 3.86651C1.96265 3.87305 2.00238 3.8312 2.04573 3.77364C2.08908 3.71608 2.13363 3.65591 2.14688 3.64021C2.15892 3.62451 2.18902 3.58527 2.2131 3.55257C2.27451 3.46885 2.42985 3.28179 2.51293 3.19022C2.52859 3.17322 2.53701 3.1536 2.5334 3.14706C2.52859 3.13921 2.53099 3.13528 2.53822 3.13659C2.55508 3.14182 2.63696 3.05549 2.62853 3.0411C2.62492 3.03456 2.62853 3.03063 2.63816 3.03194C2.64659 3.03456 2.65261 3.02802 2.6502 3.01886C2.649 3.0084 2.65141 3.00447 2.65743 3.0084C2.67308 3.01886 2.75978 2.9286 2.75014 2.9129C2.74653 2.90506 2.75014 2.90244 2.75978 2.90636C2.77543 2.9129 2.86454 2.8161 2.86454 2.79256C2.86454 2.77817 2.86213 2.77817 2.84647 2.79518Z" fill="#009B10"/>
<path d="M1.87412 3.96133C1.62607 4.32237 1.42378 4.6494 1.43823 4.66509C1.44425 4.67163 1.49362 4.60361 1.55744 4.49896C1.65858 4.33283 1.69832 4.27266 1.78261 4.15101C1.80187 4.12485 1.81392 4.09607 1.8103 4.08953C1.80549 4.08168 1.8079 4.07775 1.81392 4.07906C1.81994 4.08168 1.85124 4.04505 1.88376 3.99796C1.91627 3.95087 1.94757 3.90901 1.9548 3.90378C1.96202 3.89724 1.96202 3.88939 1.95359 3.88023C1.94396 3.86977 1.92229 3.89069 1.87412 3.96133Z" fill="#009B10"/>
<path d="M1.3884 4.71828C1.07292 5.26114 0.740583 6.02246 0.541903 6.65951C0.481696 6.85441 0.414265 7.08202 0.396203 7.15659C0.390183 7.17752 0.372121 7.24815 0.355263 7.31356C0.30469 7.50062 0.302282 7.5137 0.257729 7.69683C0.233646 7.79233 0.203543 7.92444 0.190298 7.99116C0.177052 8.05787 0.158991 8.14682 0.150562 8.18999C0.140929 8.23316 0.122867 8.34173 0.108417 8.43199C0.0939677 8.52225 0.07711 8.62559 0.0710893 8.66352C0.0650687 8.70015 0.0542316 8.83358 0.0470068 8.95785C0.0397821 9.08212 0.0289449 9.26395 0.0229243 9.36075C0.00125004 9.68254 -0.00477059 9.85128 0.00365829 9.94024C0.00847479 9.98994 0.0144954 10.0279 0.0181078 10.0253C0.0205161 10.0226 0.0277408 9.90884 0.0337614 9.77149C0.0759058 8.91468 0.0855389 8.78256 0.1325 8.5301C0.144541 8.45815 0.18789 8.22269 0.227626 8.00555C0.266158 7.78971 0.309506 7.56733 0.322752 7.51239C0.337201 7.45745 0.358875 7.36588 0.373325 7.30963C0.472063 6.90543 0.691214 6.26577 0.895916 5.78307C1.01874 5.49268 1.21862 5.08978 1.38118 4.80461C1.42573 4.72482 1.44259 4.68427 1.43416 4.67511C1.42573 4.66595 1.41128 4.67903 1.3884 4.71828Z" fill="#009B10"/>
</svg>
