<svg width="18" height="18" viewBox="0 0 20 20" fill="none" xmlns="http://www.w3.org/2000/svg">
<path d="M9.48968 0.224091C9.37367 0.356316 8.49634 2.00086 7.53926 3.88507C6.58219 5.76928 4.50851 9.85999 2.92063 12.9755C1.04273 16.6696 0.0276441 18.7356 0.00589232 18.9257C-0.0303607 19.2893 0.10015 19.5703 0.411926 19.8099L0.658446 20H10.077H19.5028L19.7493 19.719C20.2423 19.1571 20.4888 19.7355 15.6744 10.1823C10.454 -0.16432 10.686 0.273675 10.425 0.124922C10.0915 -0.0734156 9.7362 -0.0320953 9.48968 0.224091ZM10.7513 6.52957C11.2733 7.08327 11.2661 7.62869 10.7295 10.2484C10.5265 11.2236 10.3235 12.3392 10.28 12.7276C10.193 13.4631 10.1422 13.6036 9.96822 13.5292C9.90296 13.5044 9.85221 13.2896 9.8232 12.9177C9.7942 12.6119 9.68544 11.9425 9.58393 11.4467C8.85162 7.82703 8.81537 7.56258 9.01114 6.97583C9.1924 6.4304 9.45342 6.26512 10.077 6.29818C10.4758 6.32297 10.599 6.36429 10.7513 6.52957ZM10.367 14.6284C10.889 14.7936 11.2516 15.5787 11.0848 16.1903C10.9833 16.5869 10.5918 17.0001 10.2437 17.0745C9.83045 17.1572 9.37367 16.9175 9.15615 16.496C8.86612 15.9258 8.93138 15.3391 9.35191 14.9011C9.66369 14.5705 9.93921 14.4961 10.367 14.6284Z" fill="red"/>
</svg>
