<svg width="233" height="53" viewBox="0 0 233 53" fill="none" xmlns="http://www.w3.org/2000/svg">
<path d="M33.4374 3.04424C31.9008 3.23766 30.6884 3.48152 29.3205 3.86835C26.0741 4.78496 22.6677 6.46681 19.5146 8.71207C16.5213 10.8438 13.9277 13.2194 11.8714 15.7212C11.2896 16.4276 9.27783 18.9587 9.27783 18.984C9.27783 19.0176 9.36221 18.9629 9.74859 18.6812C10.7478 17.9496 12.4621 16.8859 13.5191 16.3435C16.8144 14.649 19.7899 13.7282 23.2451 13.3372C24.1955 13.232 26.7047 13.232 27.6196 13.3372C29.8357 13.5936 31.6299 14.0688 33.4152 14.8718C36.4174 16.2173 38.8866 18.2818 40.7297 20.9854C40.9429 21.3007 41.1205 21.5698 41.1205 21.5824C41.1205 21.5908 41.2182 21.7632 41.3381 21.9566C41.8089 22.7261 42.3862 23.9496 42.777 24.9924C44.1094 28.5453 44.438 32.7793 43.7185 36.9966C43.532 38.0856 43.3499 38.8844 43.0035 40.108C42.9769 40.2089 42.9769 40.2089 43.0391 40.129C43.1012 40.0533 43.4698 39.4605 43.7319 39.0148C43.794 38.9097 43.9895 38.5901 44.1627 38.3C46.3432 34.7303 47.3336 32.6027 48.5149 28.9237C48.9058 27.7086 49.4387 25.4633 49.6252 24.2776C49.6652 24.0211 49.7051 23.7772 49.7185 23.731C49.7851 23.4535 49.9139 22.2131 49.9627 21.4479C50.0382 20.1318 49.9938 17.588 49.8739 16.7093C49.4342 13.396 48.5771 10.9952 47.0494 8.78355C46.5609 8.08138 46.2367 7.68615 45.6149 7.05966C43.9895 5.41565 42.3418 4.41075 40.0324 3.65812C39.3041 3.42266 37.954 3.14515 37.1235 3.06106C36.3907 2.98958 33.9659 2.97697 33.4374 3.04424Z" fill="#FF0000"/>
<path d="M25.1773 15.3261C25.0929 15.3345 24.8042 15.3639 24.5333 15.3892C22.0641 15.6162 19.2884 16.3142 16.9391 17.2981C16.3706 17.5377 16.2462 17.5924 15.4291 17.9792C12.7822 19.2322 10.726 20.5398 8.05686 22.6547C5.73861 24.5006 3.9977 26.2287 2.16796 28.5034C1.73718 29.0416 0.107294 31.0808 0.0229134 31.1943C-0.0348208 31.27 -0.00373315 31.249 0.355996 30.9757C1.55953 30.0591 3.75344 28.7851 5.48102 27.9988C8.37218 26.6786 10.988 25.968 14.1634 25.6358C14.9805 25.5517 17.7162 25.5643 18.5156 25.6568C21.7976 26.0437 24.5333 26.9687 26.9981 28.5286C27.8908 29.092 27.9841 29.1551 28.6946 29.7185C30.7375 31.3373 32.5095 33.5111 33.7042 35.8783C33.873 36.2146 34.0151 36.5006 34.0151 36.5132C34.0151 36.5216 34.0684 36.6393 34.1305 36.7697C34.2638 37.0472 34.6724 38.0731 34.8145 38.4893C35.3918 40.1964 35.7471 41.9708 35.9292 44.0437C36.0002 44.8594 35.9558 47.5839 35.8626 48.3912C35.6894 49.8502 35.4318 51.2546 35.1209 52.4655C35.0454 52.7472 34.9966 52.9911 35.0054 52.9995C35.0232 53.0163 35.2852 52.6085 35.5606 52.1333C35.6228 52.0282 35.827 51.6877 36.0136 51.3765C36.5909 50.4221 37.7234 48.4753 37.9232 48.0969C38.5272 46.9617 39.4776 44.7206 39.9662 43.2826C40.7655 40.9364 41.3118 38.6365 41.5872 36.4711C41.6227 36.1684 41.6627 35.8531 41.676 35.7605C41.8136 34.8061 41.8758 32.195 41.787 30.9841C41.4939 26.9266 40.357 23.6639 38.3052 20.9561C37.9677 20.5146 37.7367 20.2455 37.2615 19.7578C35.6139 18.0549 33.6864 16.8524 31.4392 16.1208C29.8138 15.591 28.3482 15.3639 26.3053 15.3261C25.7724 15.3177 25.2617 15.3177 25.1773 15.3261Z" fill="#FF0000"/>
<path d="M69.26 1.968V1.32H78.044C80.084 1.32 81.8 1.944 83.192 3.192C84.608 4.416 85.316 6.072 85.316 8.16C85.316 10.248 84.608 11.916 83.192 13.164C81.8 14.388 80.084 15 78.044 15H74.408V22.848C74.408 23.184 74.576 23.352 74.912 23.352H77.324V24H69.26V23.352H70.952C71.288 23.352 71.456 23.184 71.456 22.848V2.4C71.456 2.112 71.288 1.968 70.952 1.968H69.26ZM77.864 2.328H74.408V13.992H77.864C79.28 13.992 80.396 13.416 81.212 12.264C82.028 11.088 82.436 9.72 82.436 8.16C82.436 6.6 82.028 5.244 81.212 4.092C80.396 2.916 79.28 2.328 77.864 2.328ZM96.1278 8.016C97.0638 8.016 97.8198 8.412 98.3958 9.204C98.9958 9.996 99.2958 10.992 99.2958 12.192C99.2958 13.392 98.8038 13.992 97.8198 13.992C97.2438 13.992 96.7758 13.812 96.4158 13.452C96.7278 12.756 96.8838 12.048 96.8838 11.328C96.8838 10.056 96.3558 9.42 95.2998 9.42C94.4118 9.42 93.6198 10.164 92.9238 11.652C92.2518 13.116 91.9158 15.252 91.9158 18.06V22.848C91.9158 23.184 92.0838 23.352 92.4198 23.352H94.8318V24H87.1278V23.352H88.8198C89.1558 23.352 89.3238 23.184 89.3238 22.848V9.6C89.3238 9.264 89.1558 9.096 88.8198 9.096H87.1278V8.448H88.8918C90.3318 8.448 91.3398 8.376 91.9158 8.232V12.84C92.2998 11.184 92.8638 9.972 93.6078 9.204C94.3518 8.412 95.1918 8.016 96.1278 8.016ZM102.921 22.236C101.577 20.772 100.905 18.768 100.905 16.224C100.905 13.68 101.577 11.676 102.921 10.212C104.265 8.748 106.017 8.016 108.177 8.016C110.337 8.016 112.089 8.748 113.433 10.212C114.801 11.676 115.485 13.68 115.485 16.224C115.485 18.768 114.801 20.772 113.433 22.236C112.089 23.7 110.337 24.432 108.177 24.432C106.017 24.432 104.265 23.7 102.921 22.236ZM104.937 10.824C104.073 12.144 103.641 13.944 103.641 16.224C103.641 18.504 104.073 20.316 104.937 21.66C105.801 22.98 106.881 23.64 108.177 23.64C109.473 23.64 110.553 22.98 111.417 21.66C112.305 20.316 112.749 18.504 112.749 16.224C112.749 13.944 112.305 12.144 111.417 10.824C110.553 9.48 109.473 8.808 108.177 8.808C106.881 8.808 105.801 9.48 104.937 10.824ZM120.214 30.624V9.6C120.214 9.264 120.046 9.096 119.71 9.096H118.018V8.448H119.782C121.222 8.448 122.23 8.376 122.806 8.232V13.272C123.214 11.544 123.862 10.236 124.75 9.348C125.662 8.46 126.67 8.016 127.774 8.016C129.286 8.016 130.618 8.772 131.77 10.284C132.922 11.796 133.498 13.8 133.498 16.296C133.498 18.792 132.838 20.772 131.518 22.236C130.222 23.7 128.518 24.432 126.406 24.432C125.086 24.432 123.886 24.108 122.806 23.46V30.624C122.806 30.96 122.974 31.128 123.31 31.128H125.722V31.776H118.018V31.128H119.71C120.046 31.128 120.214 30.96 120.214 30.624ZM130.762 16.368C130.762 14.136 130.414 12.42 129.718 11.22C129.022 9.996 128.134 9.384 127.054 9.384C125.998 9.384 125.026 10.092 124.138 11.508C123.25 12.924 122.806 14.964 122.806 17.628V22.488C123.862 23.184 125.014 23.532 126.262 23.532C127.534 23.532 128.602 22.896 129.466 21.624C130.33 20.352 130.762 18.6 130.762 16.368ZM143.65 8.016C145.306 8.016 146.614 8.568 147.574 9.672C148.534 10.776 149.014 12.396 149.014 14.532C149.014 14.964 148.99 15.444 148.942 15.972H139.114V16.224C139.114 18.504 139.522 20.304 140.338 21.624C141.178 22.92 142.246 23.568 143.542 23.568C144.862 23.568 145.942 23.232 146.782 22.56C147.622 21.888 148.198 20.928 148.51 19.68L149.194 19.824C148.906 21.288 148.246 22.428 147.214 23.244C146.182 24.036 144.994 24.432 143.65 24.432C141.562 24.432 139.822 23.7 138.43 22.236C137.062 20.772 136.378 18.78 136.378 16.26C136.378 13.716 137.074 11.712 138.466 10.248C139.858 8.76 141.586 8.016 143.65 8.016ZM146.53 13.308C146.53 10.356 145.426 8.88 143.218 8.88C142.114 8.88 141.166 9.48 140.374 10.68C139.606 11.88 139.198 13.404 139.15 15.252H146.386C146.482 14.436 146.53 13.788 146.53 13.308ZM154.104 22.848V1.824C154.104 1.488 153.936 1.32 153.6 1.32H151.908V0.672H153.672C155.112 0.672 156.12 0.599999 156.696 0.455998V22.848C156.696 23.184 156.864 23.352 157.2 23.352H158.892V24H151.908V23.352H153.6C153.936 23.352 154.104 23.184 154.104 22.848ZM177.897 24.432C176.313 24.432 174.729 24 173.145 23.136C172.617 22.872 172.257 22.74 172.065 22.74C171.705 22.74 171.513 22.992 171.489 23.496L171.453 24H170.769V17.988H171.417C171.633 19.836 172.317 21.204 173.469 22.092C174.645 22.956 176.025 23.388 177.609 23.388C179.217 23.388 180.429 22.956 181.245 22.092C182.085 21.228 182.505 20.208 182.505 19.032C182.505 17.16 181.425 15.744 179.265 14.784L174.981 12.876C173.685 12.3 172.713 11.52 172.065 10.536C171.417 9.528 171.093 8.448 171.093 7.296C171.093 5.544 171.681 4.044 172.857 2.796C174.033 1.524 175.725 0.887999 177.933 0.887999C179.229 0.887999 180.561 1.32 181.929 2.184C182.385 2.448 182.697 2.58 182.865 2.58C183.177 2.58 183.345 2.328 183.369 1.824L183.405 1.104H184.089V7.332H183.441C183.249 5.484 182.649 4.128 181.641 3.264C180.657 2.376 179.445 1.932 178.005 1.932C176.589 1.932 175.485 2.328 174.693 3.12C173.925 3.888 173.541 4.776 173.541 5.784C173.541 6.768 173.805 7.656 174.333 8.448C174.885 9.24 175.689 9.864 176.745 10.32L181.065 12.228C182.505 12.876 183.585 13.728 184.305 14.784C185.049 15.816 185.421 16.932 185.421 18.132C185.421 19.836 184.737 21.312 183.369 22.56C182.001 23.808 180.177 24.432 177.897 24.432ZM190.319 22.236C188.975 20.772 188.303 18.768 188.303 16.224C188.303 13.68 188.975 11.676 190.319 10.212C191.663 8.748 193.415 8.016 195.575 8.016C197.735 8.016 199.487 8.748 200.831 10.212C202.199 11.676 202.883 13.68 202.883 16.224C202.883 18.768 202.199 20.772 200.831 22.236C199.487 23.7 197.735 24.432 195.575 24.432C193.415 24.432 191.663 23.7 190.319 22.236ZM192.335 10.824C191.471 12.144 191.039 13.944 191.039 16.224C191.039 18.504 191.471 20.316 192.335 21.66C193.199 22.98 194.279 23.64 195.575 23.64C196.871 23.64 197.951 22.98 198.815 21.66C199.703 20.316 200.147 18.504 200.147 16.224C200.147 13.944 199.703 12.144 198.815 10.824C197.951 9.48 196.871 8.808 195.575 8.808C194.279 8.808 193.199 9.48 192.335 10.824ZM210.744 4.128V8.448H214.344V9.096H210.744V22.92C210.744 23.208 210.936 23.352 211.32 23.352H213.66V24H205.956V23.352H207.648C207.984 23.352 208.152 23.184 208.152 22.848V9.6C208.152 9.264 207.984 9.096 207.648 9.096H205.956V8.448H208.188C208.332 5.664 208.848 3.6 209.736 2.256C210.648 0.911999 211.728 0.239999 212.976 0.239999C214.248 0.239999 215.172 0.551999 215.748 1.176C216.324 1.776 216.612 2.424 216.612 3.12C216.612 4.56 216.192 5.28 215.352 5.28C214.656 5.28 214.092 5.1 213.66 4.74C214.02 4.02 214.2 3.384 214.2 2.832C214.2 1.656 213.708 1.068 212.724 1.068C211.404 1.068 210.744 2.088 210.744 4.128ZM220.062 4.632H220.602V8.448H224.202V9.096H220.602V21.3C220.602 22.596 220.962 23.244 221.682 23.244C222.018 23.244 222.306 23.088 222.546 22.776C222.81 22.464 222.942 22.104 222.942 21.696C222.942 21.288 222.906 20.904 222.834 20.544L223.518 20.436C223.614 20.796 223.662 21.192 223.662 21.624C223.662 22.488 223.398 23.172 222.87 23.676C222.366 24.18 221.694 24.432 220.854 24.432C220.014 24.432 219.33 24.096 218.802 23.424C218.274 22.728 218.01 21.696 218.01 20.328V9.6C218.01 9.264 217.842 9.096 217.506 9.096H215.814V8.448H217.578C218.346 8.448 219.174 7.176 220.062 4.632Z" fill="#7F00FF"/>
<path d="M67.9854 50L70.7344 42.8418H71.7549L74.6846 50H73.6055L72.7705 47.832H69.7773L68.9912 50H67.9854ZM70.0508 47.0605H72.4775L71.7305 45.0781C71.5026 44.4759 71.3333 43.9811 71.2227 43.5938C71.1315 44.0527 71.0029 44.5085 70.8369 44.9609L70.0508 47.0605ZM78.7129 48.1006L79.5771 48.2129C79.4827 48.8086 79.2402 49.2757 78.8496 49.6143C78.4622 49.9495 77.9854 50.1172 77.4189 50.1172C76.7093 50.1172 76.138 49.8861 75.7051 49.4238C75.2754 48.9583 75.0605 48.2926 75.0605 47.4268C75.0605 46.8669 75.1533 46.377 75.3389 45.957C75.5244 45.5371 75.806 45.223 76.1836 45.0146C76.5645 44.8031 76.9779 44.6973 77.4238 44.6973C77.987 44.6973 78.4476 44.8405 78.8057 45.127C79.1637 45.4102 79.3932 45.8138 79.4941 46.3379L78.6396 46.4697C78.5583 46.1214 78.4134 45.8594 78.2051 45.6836C78 45.5078 77.751 45.4199 77.458 45.4199C77.0153 45.4199 76.6556 45.5794 76.3789 45.8984C76.1022 46.2142 75.9639 46.7155 75.9639 47.4023C75.9639 48.099 76.0973 48.6051 76.3643 48.9209C76.6312 49.2367 76.9795 49.3945 77.4092 49.3945C77.7542 49.3945 78.0423 49.2887 78.2734 49.0771C78.5046 48.8656 78.651 48.54 78.7129 48.1006ZM83.7129 48.1006L84.5771 48.2129C84.4827 48.8086 84.2402 49.2757 83.8496 49.6143C83.4622 49.9495 82.9854 50.1172 82.4189 50.1172C81.7093 50.1172 81.138 49.8861 80.7051 49.4238C80.2754 48.9583 80.0605 48.2926 80.0605 47.4268C80.0605 46.8669 80.1533 46.377 80.3389 45.957C80.5244 45.5371 80.806 45.223 81.1836 45.0146C81.5645 44.8031 81.9779 44.6973 82.4238 44.6973C82.987 44.6973 83.4476 44.8405 83.8057 45.127C84.1637 45.4102 84.3932 45.8138 84.4941 46.3379L83.6396 46.4697C83.5583 46.1214 83.4134 45.8594 83.2051 45.6836C83 45.5078 82.751 45.4199 82.458 45.4199C82.0153 45.4199 81.6556 45.5794 81.3789 45.8984C81.1022 46.2142 80.9639 46.7155 80.9639 47.4023C80.9639 48.099 81.0973 48.6051 81.3643 48.9209C81.6312 49.2367 81.9795 49.3945 82.4092 49.3945C82.7542 49.3945 83.0423 49.2887 83.2734 49.0771C83.5046 48.8656 83.651 48.54 83.7129 48.1006ZM88.8789 48.3301L89.7871 48.4424C89.6439 48.973 89.3786 49.3848 88.9912 49.6777C88.6038 49.9707 88.109 50.1172 87.5068 50.1172C86.7484 50.1172 86.1462 49.8844 85.7002 49.4189C85.2575 48.9502 85.0361 48.2943 85.0361 47.4512C85.0361 46.5788 85.2607 45.9017 85.71 45.4199C86.1592 44.9382 86.7419 44.6973 87.458 44.6973C88.1514 44.6973 88.7178 44.9333 89.1572 45.4053C89.5967 45.8773 89.8164 46.5413 89.8164 47.3975C89.8164 47.4495 89.8148 47.5277 89.8115 47.6318H85.9443C85.9769 48.2015 86.138 48.6377 86.4277 48.9404C86.7174 49.2432 87.0788 49.3945 87.5117 49.3945C87.834 49.3945 88.109 49.3099 88.3369 49.1406C88.5648 48.9714 88.7454 48.7012 88.8789 48.3301ZM85.9932 46.9092H88.8887C88.8496 46.473 88.7389 46.1458 88.5566 45.9277C88.2767 45.5892 87.9137 45.4199 87.4678 45.4199C87.0641 45.4199 86.724 45.555 86.4473 45.8252C86.1738 46.0954 86.0225 46.4567 85.9932 46.9092ZM90.876 50V42.8418H91.7549V50H90.876ZM96.6719 48.3301L97.5801 48.4424C97.4368 48.973 97.1715 49.3848 96.7842 49.6777C96.3968 49.9707 95.902 50.1172 95.2998 50.1172C94.5413 50.1172 93.9391 49.8844 93.4932 49.4189C93.0505 48.9502 92.8291 48.2943 92.8291 47.4512C92.8291 46.5788 93.0537 45.9017 93.5029 45.4199C93.9521 44.9382 94.5348 44.6973 95.251 44.6973C95.9443 44.6973 96.5107 44.9333 96.9502 45.4053C97.3896 45.8773 97.6094 46.5413 97.6094 47.3975C97.6094 47.4495 97.6077 47.5277 97.6045 47.6318H93.7373C93.7699 48.2015 93.931 48.6377 94.2207 48.9404C94.5104 49.2432 94.8717 49.3945 95.3047 49.3945C95.627 49.3945 95.902 49.3099 96.1299 49.1406C96.3577 48.9714 96.5384 48.7012 96.6719 48.3301ZM93.7861 46.9092H96.6816C96.6426 46.473 96.5319 46.1458 96.3496 45.9277C96.0697 45.5892 95.7067 45.4199 95.2607 45.4199C94.8571 45.4199 94.5169 45.555 94.2402 45.8252C93.9668 46.0954 93.8154 46.4567 93.7861 46.9092ZM98.6787 50V44.8145H99.4697V45.6006C99.6715 45.2327 99.8571 44.9902 100.026 44.873C100.199 44.7559 100.388 44.6973 100.593 44.6973C100.889 44.6973 101.19 44.7917 101.496 44.9805L101.193 45.7959C100.979 45.6689 100.764 45.6055 100.549 45.6055C100.357 45.6055 100.184 45.6641 100.031 45.7812C99.8783 45.8952 99.7692 46.0547 99.7041 46.2598C99.6064 46.5723 99.5576 46.9141 99.5576 47.2852V50H98.6787ZM105.402 49.3604C105.077 49.637 104.763 49.8324 104.46 49.9463C104.16 50.0602 103.838 50.1172 103.493 50.1172C102.924 50.1172 102.486 49.9788 102.18 49.7021C101.874 49.4222 101.721 49.0658 101.721 48.6328C101.721 48.3789 101.778 48.1478 101.892 47.9395C102.009 47.7279 102.16 47.5586 102.346 47.4316C102.535 47.3047 102.746 47.2087 102.98 47.1436C103.153 47.098 103.413 47.054 103.762 47.0117C104.471 46.9271 104.994 46.8262 105.329 46.709C105.332 46.5885 105.334 46.512 105.334 46.4795C105.334 46.1214 105.251 45.8691 105.085 45.7227C104.86 45.5241 104.527 45.4248 104.084 45.4248C103.671 45.4248 103.365 45.498 103.166 45.6445C102.971 45.7878 102.826 46.0433 102.731 46.4111L101.872 46.2939C101.95 45.9261 102.079 45.6299 102.258 45.4053C102.437 45.1774 102.696 45.0033 103.034 44.8828C103.373 44.7591 103.765 44.6973 104.211 44.6973C104.654 44.6973 105.013 44.7493 105.29 44.8535C105.567 44.9577 105.77 45.0895 105.9 45.249C106.031 45.4053 106.122 45.6038 106.174 45.8447C106.203 45.9945 106.218 46.2646 106.218 46.6553V47.8271C106.218 48.6442 106.236 49.1618 106.271 49.3799C106.311 49.5947 106.385 49.8014 106.496 50H105.578C105.487 49.8177 105.428 49.6045 105.402 49.3604ZM105.329 47.3975C105.01 47.5277 104.532 47.6383 103.894 47.7295C103.532 47.7816 103.277 47.8402 103.127 47.9053C102.977 47.9704 102.862 48.0664 102.78 48.1934C102.699 48.3171 102.658 48.4554 102.658 48.6084C102.658 48.8428 102.746 49.0381 102.922 49.1943C103.101 49.3506 103.361 49.4287 103.703 49.4287C104.042 49.4287 104.343 49.3555 104.606 49.209C104.87 49.0592 105.064 48.8558 105.188 48.5986C105.282 48.4001 105.329 48.1071 105.329 47.7197V47.3975ZM109.504 49.2139L109.631 49.9902C109.383 50.0423 109.162 50.0684 108.967 50.0684C108.648 50.0684 108.4 50.0179 108.225 49.917C108.049 49.8161 107.925 49.6842 107.854 49.5215C107.782 49.3555 107.746 49.0088 107.746 48.4814V45.498H107.102V44.8145H107.746V43.5303L108.62 43.0029V44.8145H109.504V45.498H108.62V48.5303C108.62 48.7809 108.635 48.9421 108.664 49.0137C108.697 49.0853 108.747 49.1423 108.815 49.1846C108.887 49.2269 108.988 49.248 109.118 49.248C109.216 49.248 109.344 49.2367 109.504 49.2139ZM110.373 43.8525V42.8418H111.252V43.8525H110.373ZM110.373 50V44.8145H111.252V50H110.373ZM112.595 50V44.8145H113.386V45.5518C113.767 44.9821 114.317 44.6973 115.036 44.6973C115.349 44.6973 115.635 44.7542 115.896 44.8682C116.159 44.9788 116.356 45.1253 116.486 45.3076C116.617 45.4899 116.708 45.7064 116.76 45.957C116.792 46.1198 116.809 46.4046 116.809 46.8115V50H115.93V46.8457C115.93 46.4876 115.896 46.2207 115.827 46.0449C115.759 45.8659 115.637 45.7243 115.461 45.6201C115.288 45.5127 115.085 45.459 114.851 45.459C114.476 45.459 114.152 45.5778 113.879 45.8154C113.609 46.0531 113.474 46.5039 113.474 47.168V50H112.595ZM118 50.4297L118.854 50.5566C118.89 50.8203 118.99 51.0124 119.152 51.1328C119.37 51.2956 119.668 51.377 120.046 51.377C120.453 51.377 120.767 51.2956 120.988 51.1328C121.21 50.9701 121.359 50.7422 121.438 50.4492C121.483 50.2702 121.504 49.8942 121.501 49.3213C121.117 49.7738 120.638 50 120.065 50C119.353 50 118.801 49.7428 118.41 49.2285C118.02 48.7142 117.824 48.0973 117.824 47.3779C117.824 46.8831 117.914 46.4274 118.093 46.0107C118.272 45.5908 118.531 45.2669 118.869 45.0391C119.211 44.8112 119.611 44.6973 120.07 44.6973C120.682 44.6973 121.187 44.9447 121.584 45.4395V44.8145H122.395V49.2969C122.395 50.1042 122.312 50.6755 122.146 51.0107C121.983 51.3493 121.722 51.6162 121.364 51.8115C121.009 52.0068 120.572 52.1045 120.051 52.1045C119.432 52.1045 118.933 51.9645 118.552 51.6846C118.171 51.4079 117.987 50.9896 118 50.4297ZM118.728 47.3145C118.728 47.9948 118.863 48.4912 119.133 48.8037C119.403 49.1162 119.742 49.2725 120.148 49.2725C120.552 49.2725 120.891 49.1178 121.164 48.8086C121.438 48.4961 121.574 48.0078 121.574 47.3438C121.574 46.709 121.433 46.2305 121.149 45.9082C120.869 45.5859 120.531 45.4248 120.134 45.4248C119.743 45.4248 119.411 45.5843 119.138 45.9033C118.864 46.2191 118.728 46.6895 118.728 47.3145ZM126.584 50V42.8418H129.27C129.816 42.8418 130.254 42.915 130.583 43.0615C130.915 43.2048 131.174 43.4277 131.359 43.7305C131.548 44.0299 131.643 44.3441 131.643 44.6729C131.643 44.9788 131.56 45.2669 131.394 45.5371C131.228 45.8073 130.977 46.0254 130.642 46.1914C131.075 46.3184 131.407 46.5348 131.638 46.8408C131.872 47.1468 131.989 47.5081 131.989 47.9248C131.989 48.2601 131.918 48.5726 131.774 48.8623C131.634 49.1488 131.46 49.3701 131.252 49.5264C131.044 49.6826 130.782 49.8014 130.466 49.8828C130.153 49.9609 129.769 50 129.313 50H126.584ZM127.531 45.8496H129.079C129.499 45.8496 129.8 45.8219 129.982 45.7666C130.223 45.695 130.404 45.5762 130.524 45.4102C130.648 45.2441 130.71 45.0358 130.71 44.7852C130.71 44.5475 130.653 44.3392 130.539 44.1602C130.425 43.9779 130.262 43.8542 130.051 43.7891C129.839 43.7207 129.476 43.6865 128.962 43.6865H127.531V45.8496ZM127.531 49.1553H129.313C129.619 49.1553 129.834 49.1439 129.958 49.1211C130.176 49.082 130.358 49.0169 130.505 48.9258C130.651 48.8346 130.772 48.7028 130.866 48.5303C130.961 48.3545 131.008 48.1527 131.008 47.9248C131.008 47.6579 130.939 47.4268 130.803 47.2314C130.666 47.0329 130.476 46.8945 130.231 46.8164C129.991 46.735 129.642 46.6943 129.187 46.6943H127.531V49.1553ZM136.579 50V49.2383C136.175 49.8242 135.627 50.1172 134.934 50.1172C134.628 50.1172 134.341 50.0586 134.074 49.9414C133.811 49.8242 133.614 49.6777 133.483 49.502C133.356 49.3229 133.267 49.1048 133.215 48.8477C133.179 48.6751 133.161 48.4017 133.161 48.0273V44.8145H134.04V47.6904C134.04 48.1494 134.058 48.4587 134.094 48.6182C134.149 48.8493 134.266 49.0316 134.445 49.165C134.624 49.2952 134.846 49.3604 135.109 49.3604C135.373 49.3604 135.62 49.2936 135.852 49.1602C136.083 49.0234 136.245 48.8395 136.34 48.6084C136.438 48.374 136.486 48.0355 136.486 47.5928V44.8145H137.365V50H136.579ZM138.396 48.4521L139.265 48.3154C139.313 48.6637 139.449 48.9307 139.67 49.1162C139.895 49.3018 140.207 49.3945 140.607 49.3945C141.011 49.3945 141.311 49.3132 141.506 49.1504C141.701 48.9844 141.799 48.7907 141.799 48.5693C141.799 48.3708 141.713 48.2145 141.54 48.1006C141.42 48.0225 141.12 47.9232 140.642 47.8027C139.997 47.64 139.549 47.5 139.299 47.3828C139.051 47.2624 138.863 47.098 138.732 46.8896C138.605 46.6781 138.542 46.4453 138.542 46.1914C138.542 45.9603 138.594 45.7471 138.698 45.5518C138.806 45.3532 138.951 45.1888 139.133 45.0586C139.27 44.9577 139.455 44.873 139.689 44.8047C139.927 44.7331 140.181 44.6973 140.451 44.6973C140.858 44.6973 141.215 44.7559 141.521 44.873C141.83 44.9902 142.058 45.1497 142.204 45.3516C142.351 45.5501 142.451 45.8171 142.507 46.1523L141.647 46.2695C141.608 46.0026 141.494 45.7943 141.306 45.6445C141.12 45.4948 140.856 45.4199 140.515 45.4199C140.111 45.4199 139.823 45.4867 139.65 45.6201C139.478 45.7536 139.392 45.9098 139.392 46.0889C139.392 46.2028 139.427 46.3053 139.499 46.3965C139.571 46.4909 139.683 46.569 139.836 46.6309C139.924 46.6634 140.183 46.7383 140.612 46.8555C141.234 47.0215 141.667 47.1582 141.911 47.2656C142.159 47.3698 142.352 47.5228 142.492 47.7246C142.632 47.9264 142.702 48.1771 142.702 48.4766C142.702 48.7695 142.616 49.0462 142.443 49.3066C142.274 49.5638 142.028 49.764 141.706 49.9072C141.384 50.0472 141.019 50.1172 140.612 50.1172C139.938 50.1172 139.424 49.9772 139.069 49.6973C138.718 49.4173 138.493 49.0023 138.396 48.4521ZM143.752 43.8525V42.8418H144.631V43.8525H143.752ZM143.752 50V44.8145H144.631V50H143.752ZM145.974 50V44.8145H146.765V45.5518C147.146 44.9821 147.696 44.6973 148.415 44.6973C148.728 44.6973 149.014 44.7542 149.274 44.8682C149.538 44.9788 149.735 45.1253 149.865 45.3076C149.995 45.4899 150.087 45.7064 150.139 45.957C150.171 46.1198 150.188 46.4046 150.188 46.8115V50H149.309V46.8457C149.309 46.4876 149.274 46.2207 149.206 46.0449C149.138 45.8659 149.016 45.7243 148.84 45.6201C148.667 45.5127 148.464 45.459 148.229 45.459C147.855 45.459 147.531 45.5778 147.258 45.8154C146.988 46.0531 146.853 46.5039 146.853 47.168V50H145.974ZM155.09 48.3301L155.998 48.4424C155.855 48.973 155.59 49.3848 155.202 49.6777C154.815 49.9707 154.32 50.1172 153.718 50.1172C152.959 50.1172 152.357 49.8844 151.911 49.4189C151.468 48.9502 151.247 48.2943 151.247 47.4512C151.247 46.5788 151.472 45.9017 151.921 45.4199C152.37 44.9382 152.953 44.6973 153.669 44.6973C154.362 44.6973 154.929 44.9333 155.368 45.4053C155.808 45.8773 156.027 46.5413 156.027 47.3975C156.027 47.4495 156.026 47.5277 156.022 47.6318H152.155C152.188 48.2015 152.349 48.6377 152.639 48.9404C152.928 49.2432 153.29 49.3945 153.723 49.3945C154.045 49.3945 154.32 49.3099 154.548 49.1406C154.776 48.9714 154.956 48.7012 155.09 48.3301ZM152.204 46.9092H155.1C155.061 46.473 154.95 46.1458 154.768 45.9277C154.488 45.5892 154.125 45.4199 153.679 45.4199C153.275 45.4199 152.935 45.555 152.658 45.8252C152.385 46.0954 152.233 46.4567 152.204 46.9092ZM156.755 48.4521L157.624 48.3154C157.673 48.6637 157.808 48.9307 158.029 49.1162C158.254 49.3018 158.566 49.3945 158.967 49.3945C159.37 49.3945 159.67 49.3132 159.865 49.1504C160.061 48.9844 160.158 48.7907 160.158 48.5693C160.158 48.3708 160.072 48.2145 159.899 48.1006C159.779 48.0225 159.479 47.9232 159.001 47.8027C158.356 47.64 157.909 47.5 157.658 47.3828C157.411 47.2624 157.222 47.098 157.092 46.8896C156.965 46.6781 156.901 46.4453 156.901 46.1914C156.901 45.9603 156.953 45.7471 157.058 45.5518C157.165 45.3532 157.31 45.1888 157.492 45.0586C157.629 44.9577 157.814 44.873 158.049 44.8047C158.286 44.7331 158.54 44.6973 158.811 44.6973C159.217 44.6973 159.574 44.7559 159.88 44.873C160.189 44.9902 160.417 45.1497 160.563 45.3516C160.71 45.5501 160.811 45.8171 160.866 46.1523L160.007 46.2695C159.968 46.0026 159.854 45.7943 159.665 45.6445C159.479 45.4948 159.216 45.4199 158.874 45.4199C158.47 45.4199 158.182 45.4867 158.01 45.6201C157.837 45.7536 157.751 45.9098 157.751 46.0889C157.751 46.2028 157.787 46.3053 157.858 46.3965C157.93 46.4909 158.042 46.569 158.195 46.6309C158.283 46.6634 158.542 46.7383 158.972 46.8555C159.593 47.0215 160.026 47.1582 160.271 47.2656C160.518 47.3698 160.712 47.5228 160.852 47.7246C160.992 47.9264 161.062 48.1771 161.062 48.4766C161.062 48.7695 160.975 49.0462 160.803 49.3066C160.633 49.5638 160.388 49.764 160.065 49.9072C159.743 50.0472 159.379 50.1172 158.972 50.1172C158.298 50.1172 157.784 49.9772 157.429 49.6973C157.077 49.4173 156.853 49.0023 156.755 48.4521ZM161.755 48.4521L162.624 48.3154C162.673 48.6637 162.808 48.9307 163.029 49.1162C163.254 49.3018 163.566 49.3945 163.967 49.3945C164.37 49.3945 164.67 49.3132 164.865 49.1504C165.061 48.9844 165.158 48.7907 165.158 48.5693C165.158 48.3708 165.072 48.2145 164.899 48.1006C164.779 48.0225 164.479 47.9232 164.001 47.8027C163.356 47.64 162.909 47.5 162.658 47.3828C162.411 47.2624 162.222 47.098 162.092 46.8896C161.965 46.6781 161.901 46.4453 161.901 46.1914C161.901 45.9603 161.953 45.7471 162.058 45.5518C162.165 45.3532 162.31 45.1888 162.492 45.0586C162.629 44.9577 162.814 44.873 163.049 44.8047C163.286 44.7331 163.54 44.6973 163.811 44.6973C164.217 44.6973 164.574 44.7559 164.88 44.873C165.189 44.9902 165.417 45.1497 165.563 45.3516C165.71 45.5501 165.811 45.8171 165.866 46.1523L165.007 46.2695C164.968 46.0026 164.854 45.7943 164.665 45.6445C164.479 45.4948 164.216 45.4199 163.874 45.4199C163.47 45.4199 163.182 45.4867 163.01 45.6201C162.837 45.7536 162.751 45.9098 162.751 46.0889C162.751 46.2028 162.787 46.3053 162.858 46.3965C162.93 46.4909 163.042 46.569 163.195 46.6309C163.283 46.6634 163.542 46.7383 163.972 46.8555C164.593 47.0215 165.026 47.1582 165.271 47.2656C165.518 47.3698 165.712 47.5228 165.852 47.7246C165.992 47.9264 166.062 48.1771 166.062 48.4766C166.062 48.7695 165.975 49.0462 165.803 49.3066C165.633 49.5638 165.388 49.764 165.065 49.9072C164.743 50.0472 164.379 50.1172 163.972 50.1172C163.298 50.1172 162.784 49.9772 162.429 49.6973C162.077 49.4173 161.853 49.0023 161.755 48.4521ZM168.659 50L171.408 42.8418H172.429L175.358 50H174.279L173.444 47.832H170.451L169.665 50H168.659ZM170.725 47.0605H173.151L172.404 45.0781C172.176 44.4759 172.007 43.9811 171.896 43.5938C171.805 44.0527 171.677 44.5085 171.511 44.9609L170.725 47.0605ZM176.003 50V42.8418H176.882V45.4102C177.292 44.9349 177.81 44.6973 178.435 44.6973C178.819 44.6973 179.152 44.7738 179.436 44.9268C179.719 45.0765 179.921 45.2848 180.041 45.5518C180.165 45.8187 180.227 46.2061 180.227 46.7139V50H179.348V46.7139C179.348 46.2744 179.252 45.9554 179.06 45.7568C178.871 45.555 178.602 45.4541 178.254 45.4541C177.993 45.4541 177.748 45.5225 177.517 45.6592C177.289 45.7926 177.126 45.9749 177.028 46.2061C176.931 46.4372 176.882 46.7562 176.882 47.1631V50H176.003ZM185.119 48.3301L186.027 48.4424C185.884 48.973 185.619 49.3848 185.231 49.6777C184.844 49.9707 184.349 50.1172 183.747 50.1172C182.989 50.1172 182.386 49.8844 181.94 49.4189C181.498 48.9502 181.276 48.2943 181.276 47.4512C181.276 46.5788 181.501 45.9017 181.95 45.4199C182.399 44.9382 182.982 44.6973 183.698 44.6973C184.392 44.6973 184.958 44.9333 185.397 45.4053C185.837 45.8773 186.057 46.5413 186.057 47.3975C186.057 47.4495 186.055 47.5277 186.052 47.6318H182.185C182.217 48.2015 182.378 48.6377 182.668 48.9404C182.958 49.2432 183.319 49.3945 183.752 49.3945C184.074 49.3945 184.349 49.3099 184.577 49.1406C184.805 48.9714 184.986 48.7012 185.119 48.3301ZM182.233 46.9092H185.129C185.09 46.473 184.979 46.1458 184.797 45.9277C184.517 45.5892 184.154 45.4199 183.708 45.4199C183.304 45.4199 182.964 45.555 182.688 45.8252C182.414 46.0954 182.263 46.4567 182.233 46.9092ZM190.52 49.3604C190.194 49.637 189.88 49.8324 189.577 49.9463C189.278 50.0602 188.955 50.1172 188.61 50.1172C188.041 50.1172 187.603 49.9788 187.297 49.7021C186.991 49.4222 186.838 49.0658 186.838 48.6328C186.838 48.3789 186.895 48.1478 187.009 47.9395C187.126 47.7279 187.277 47.5586 187.463 47.4316C187.652 47.3047 187.863 47.2087 188.098 47.1436C188.27 47.098 188.531 47.054 188.879 47.0117C189.589 46.9271 190.111 46.8262 190.446 46.709C190.45 46.5885 190.451 46.512 190.451 46.4795C190.451 46.1214 190.368 45.8691 190.202 45.7227C189.978 45.5241 189.644 45.4248 189.201 45.4248C188.788 45.4248 188.482 45.498 188.283 45.6445C188.088 45.7878 187.943 46.0433 187.849 46.4111L186.989 46.2939C187.067 45.9261 187.196 45.6299 187.375 45.4053C187.554 45.1774 187.813 45.0033 188.151 44.8828C188.49 44.7591 188.882 44.6973 189.328 44.6973C189.771 44.6973 190.131 44.7493 190.407 44.8535C190.684 44.9577 190.887 45.0895 191.018 45.249C191.148 45.4053 191.239 45.6038 191.291 45.8447C191.32 45.9945 191.335 46.2646 191.335 46.6553V47.8271C191.335 48.6442 191.353 49.1618 191.389 49.3799C191.428 49.5947 191.503 49.8014 191.613 50H190.695C190.604 49.8177 190.546 49.6045 190.52 49.3604ZM190.446 47.3975C190.127 47.5277 189.649 47.6383 189.011 47.7295C188.649 47.7816 188.394 47.8402 188.244 47.9053C188.094 47.9704 187.979 48.0664 187.897 48.1934C187.816 48.3171 187.775 48.4554 187.775 48.6084C187.775 48.8428 187.863 49.0381 188.039 49.1943C188.218 49.3506 188.479 49.4287 188.82 49.4287C189.159 49.4287 189.46 49.3555 189.724 49.209C189.987 49.0592 190.181 48.8558 190.305 48.5986C190.399 48.4001 190.446 48.1071 190.446 47.7197V47.3975ZM196.066 50V49.3457C195.738 49.86 195.254 50.1172 194.616 50.1172C194.203 50.1172 193.822 50.0033 193.474 49.7754C193.129 49.5475 192.86 49.2301 192.668 48.8232C192.479 48.4131 192.385 47.9427 192.385 47.4121C192.385 46.8945 192.471 46.4258 192.644 46.0059C192.816 45.5827 193.075 45.2588 193.42 45.0342C193.765 44.8096 194.151 44.6973 194.577 44.6973C194.89 44.6973 195.168 44.764 195.412 44.8975C195.656 45.0277 195.855 45.1986 196.008 45.4102V42.8418H196.882V50H196.066ZM193.288 47.4121C193.288 48.0762 193.428 48.5726 193.708 48.9014C193.988 49.2301 194.318 49.3945 194.699 49.3945C195.083 49.3945 195.409 49.2383 195.676 48.9258C195.946 48.61 196.081 48.1299 196.081 47.4854C196.081 46.7757 195.944 46.2549 195.671 45.9229C195.397 45.5908 195.061 45.4248 194.66 45.4248C194.27 45.4248 193.942 45.5843 193.679 45.9033C193.418 46.2223 193.288 46.7253 193.288 47.4121Z" fill="#818181"/>
</svg>
